<?xml version="1.0" standalone="no"?>
<!DOCTYPE svg PUBLIC "-//W3C//DTD SVG 20010904//EN"
 "http://www.w3.org/TR/2001/REC-SVG-20010904/DTD/svg10.dtd">
<svg version="1.0" xmlns="http://www.w3.org/2000/svg"
 width="1280.000000pt" height="1102.000000pt" viewBox="0 0 1280.000000 1102.000000"
 preserveAspectRatio="xMidYMid meet">
<metadata>
Created by potrace 1.15, written by Peter Selinger 2001-2017
</metadata>
<g transform="translate(0.000000,1102.000000) scale(0.100000,-0.100000)"
fill="#000000" stroke="none">
<path d="M7710 10855 l0 -165 35 0 35 0 0 60 0 60 240 0 240 0 0 45 0 45 -240
0 -240 0 0 60 0 60 -35 0 -35 0 0 -165z"/>
<path d="M7710 10599 l0 -41 202 4 c136 2 193 0 175 -7 -15 -5 -105 -39 -200
-75 l-172 -66 -3 -52 -3 -52 275 0 276 0 0 40 0 41 -205 -3 c-112 -2 -201 0
-197 3 4 3 96 39 205 80 l197 73 0 48 0 48 -275 0 -275 0 0 -41z"/>
<path d="M9150 10341 l0 -141 -115 0 -115 0 0 125 0 125 -65 0 -65 0 0 -125 0
-125 -95 0 -95 0 0 130 0 130 -65 0 -65 0 0 -200 0 -200 400 0 400 0 0 205 0
205 -22 0 c-13 0 -40 3 -60 6 l-38 7 0 -142z"/>
<path d="M8190 10148 l0 -98 -90 0 -89 0 -3 88 -3 87 -35 0 -35 0 -3 -90 -3
-90 -74 3 -75 4 0 89 0 89 -35 0 -35 0 0 -135 0 -135 275 0 275 0 0 139 0 139
-35 4 -35 4 0 -98z"/>
<path d="M8645 9931 c-108 -18 -174 -88 -182 -193 -16 -200 116 -291 422 -291
261 0 383 59 401 194 8 57 -9 119 -41 149 -32 30 -32 40 0 40 24 0 25 3 25 55
l0 55 -222 -2 -223 -3 0 -120 0 -120 60 0 60 0 3 53 3 52 47 -1 c122 -2 184
-45 166 -116 -8 -32 -17 -42 -59 -63 -47 -24 -59 -25 -220 -25 -141 0 -178 3
-217 18 -109 42 -120 150 -18 177 l40 11 0 69 c0 39 -1 69 -2 69 -2 -1 -21 -4
-43 -8z"/>
<path d="M7710 9797 l0 -64 143 -31 c78 -17 169 -36 202 -43 l60 -12 -150 -28
c-82 -16 -174 -34 -202 -40 l-53 -10 0 -65 0 -64 275 0 275 0 0 41 0 41 -230
-3 c-127 -2 -222 -1 -213 3 16 5 419 78 436 78 4 0 7 18 7 40 0 47 17 41 -265
96 l-200 39 233 3 232 2 0 40 0 40 -275 0 -275 0 0 -63z"/>
<path d="M860 9780 l0 -30 268 0 267 0 -255 -102 c-140 -55 -261 -106 -268
-111 -8 -6 -12 -25 -10 -46 l3 -36 323 -3 322 -2 0 36 0 37 -272 -5 c-150 -3
-268 -4 -263 -2 6 3 127 51 270 107 l260 102 3 43 3 42 -325 0 -326 0 0 -30z"/>
<path d="M8940 9325 c-173 -40 -350 -80 -392 -90 l-78 -17 0 -92 0 -92 258
-58 c141 -31 321 -72 400 -90 l143 -34 -3 71 -3 71 -98 20 -98 19 3 91 3 91
98 19 97 18 0 74 c0 41 -3 74 -7 73 -5 0 -150 -33 -323 -74z m10 -200 c0 -36
-3 -65 -6 -65 -3 0 -77 14 -166 30 -88 17 -163 30 -166 31 -6 1 310 66 331 68
4 1 7 -28 7 -64z"/>
<path d="M1090 9341 c-172 -19 -236 -74 -228 -197 3 -54 9 -69 33 -95 43 -45
99 -67 201 -78 92 -11 223 -2 297 19 46 14 100 60 117 100 17 41 8 125 -17
158 -30 41 -79 70 -136 81 -77 15 -193 20 -267 12z m305 -101 c42 -21 51 -31
59 -63 12 -46 -10 -82 -70 -112 -34 -17 -59 -20 -189 -20 -163 0 -230 15 -260
58 -22 32 -19 82 8 112 36 42 101 55 262 52 126 -2 145 -5 190 -27z"/>
<path d="M7710 9300 l0 -40 198 -1 c108 0 190 -3 182 -6 -8 -3 -73 -28 -144
-55 -71 -27 -153 -58 -183 -69 l-53 -20 0 -50 0 -49 275 0 275 0 0 35 0 35
-212 1 -213 0 210 79 210 78 3 51 3 51 -275 0 -276 0 0 -40z"/>
<path d="M5140 9243 c0 -29 5 -32 125 -80 l126 -50 -126 -49 c-118 -46 -125
-51 -125 -76 0 -16 4 -28 9 -28 5 0 73 27 150 60 l141 60 105 0 105 0 0 30 0
30 -101 0 -100 0 -142 61 c-78 34 -148 63 -154 66 -9 3 -13 -5 -13 -24z"/>
<path d="M2045 8868 l0 -63 -167 -3 -168 -2 0 -45 0 -45 205 0 205 0 0 110 0
110 -37 0 -38 0 0 -62z"/>
<path d="M7795 8915 c-22 -8 -41 -15 -42 -15 -1 0 -11 -15 -22 -34 -18 -29
-21 -49 -21 -145 l0 -111 275 0 275 0 0 45 0 45 -120 0 -120 0 0 45 c0 67 22
85 109 85 38 0 83 3 100 6 28 6 31 10 31 45 l0 39 -87 0 c-93 -1 -161 -18
-176 -45 -8 -15 -12 -14 -36 9 -26 25 -78 47 -111 46 -8 -1 -33 -7 -55 -15z
m125 -93 c16 -13 24 -32 28 -70 l5 -52 -87 0 -86 0 0 48 c0 26 4 52 8 58 24
36 97 45 132 16z"/>
<path d="M5140 8780 l0 -140 25 0 c24 0 25 3 25 55 l0 55 230 0 230 0 0 30 0
30 -230 0 -230 0 0 55 c0 52 -1 55 -25 55 l-25 0 0 -140z"/>
<path d="M867 8853 c-4 -3 -7 -19 -7 -35 l0 -28 325 0 325 0 0 35 0 35 -318 0
c-175 0 -322 -3 -325 -7z"/>
<path d="M8606 8768 c-52 -14 -121 -82 -135 -133 -27 -98 -7 -181 58 -246 64
-65 144 -90 311 -96 190 -8 323 20 389 80 33 31 61 95 61 142 0 49 -30 117
-61 139 l-23 16 32 0 32 0 0 55 0 55 -225 0 -225 0 0 -120 0 -120 65 0 65 0 0
50 0 50 66 0 c101 0 154 -35 154 -101 0 -30 -51 -76 -96 -87 -168 -44 -447
-10 -484 57 -27 51 6 116 65 127 l35 6 0 69 c0 77 -2 78 -84 57z"/>
<path d="M9495 8697 c-18 -18 -38 -51 -44 -72 -14 -50 -14 -198 -1 -246 22
-78 96 -115 174 -88 41 14 68 48 81 102 7 26 6 27 -32 27 -35 0 -40 -3 -48
-32 -9 -29 -14 -33 -45 -33 -32 0 -36 4 -48 40 -21 61 -12 227 12 254 11 12
27 21 36 21 21 0 50 -31 50 -53 0 -13 9 -17 41 -17 38 0 41 2 35 23 -3 12 -6
27 -6 34 0 6 -14 25 -31 42 -27 27 -37 31 -86 31 -49 0 -59 -4 -88 -33z"/>
<path d="M9760 8511 l0 -221 40 0 40 0 0 95 c0 92 1 95 23 95 12 0 33 -7 45
-16 18 -13 22 -25 22 -72 0 -90 6 -102 49 -102 l36 0 -5 89 c-4 67 -10 95 -24
110 -17 19 -17 20 3 40 44 44 34 145 -16 178 -18 12 -54 18 -119 21 l-94 4 0
-221z m170 130 c27 -51 -1 -101 -57 -101 l-33 0 0 60 0 60 40 0 c29 0 42 -5
50 -19z"/>
<path d="M10080 8511 l0 -221 40 0 40 0 -2 218 -3 217 -37 3 -38 3 0 -220z"/>
<path d="M10258 8701 c-30 -26 -33 -35 -33 -84 0 -65 14 -85 93 -130 63 -35
87 -67 78 -102 -14 -54 -88 -54 -102 0 -5 21 -12 25 -45 25 -45 0 -49 -12 -23
-65 30 -63 133 -84 200 -40 54 35 68 129 26 184 -9 13 -47 40 -82 60 -53 30
-66 42 -68 65 -7 59 60 81 81 26 10 -26 16 -30 49 -30 42 0 44 5 24 54 -20 48
-51 66 -113 66 -44 0 -58 -5 -85 -29z"/>
<path d="M10530 8510 l0 -220 40 0 40 0 0 220 0 220 -40 0 -40 0 0 -220z"/>
<path d="M10723 8711 c-35 -22 -46 -46 -45 -102 1 -53 18 -75 94 -120 71 -41
86 -65 74 -113 -3 -14 -15 -28 -27 -31 -24 -8 -65 16 -74 45 -5 16 -15 20 -46
20 -38 0 -39 -1 -33 -27 20 -88 113 -128 200 -87 43 21 64 59 64 118 0 55 -31
96 -101 132 -63 31 -86 65 -70 100 16 35 61 30 79 -8 11 -23 20 -28 48 -28 28
0 34 4 34 21 0 27 -18 60 -44 81 -29 24 -112 24 -153 -1z"/>
<path d="M864 8707 c-2 -7 -3 -87 -2 -177 l3 -165 33 -3 32 -3 0 70 0 71 290
0 290 0 0 40 0 40 -290 0 -290 0 0 70 0 70 -30 0 c-17 0 -33 -6 -36 -13z"/>
<path d="M1907 8637 l-198 -40 3 -66 3 -66 180 -36 c238 -49 225 -49 225 5 l0
45 -46 7 c-45 6 -45 7 -42 42 3 34 6 37 46 45 l42 8 0 50 c0 27 -3 49 -7 48
-5 -1 -97 -19 -206 -42z m43 -107 c0 -22 -20 -24 -100 -11 -46 8 -41 17 15 24
73 10 85 8 85 -13z"/>
<path d="M5140 8565 l0 -25 255 0 255 0 0 25 0 25 -255 0 -255 0 0 -25z"/>
<path d="M8190 8451 l0 -101 -90 0 -90 0 0 90 0 90 -40 0 -40 0 0 -90 0 -90
-75 0 -75 0 0 95 0 95 -35 0 -35 0 0 -140 0 -140 275 0 275 0 0 140 c0 105 -3
140 -12 140 -7 0 -23 3 -35 6 -23 6 -23 5 -23 -95z"/>
<path d="M5600 8395 l0 -85 -227 -2 -228 -3 -3 -27 -3 -28 255 0 256 0 0 115
0 115 -25 0 c-25 0 -25 -1 -25 -85z"/>
<path d="M1762 8347 c-37 -21 -54 -55 -54 -108 0 -100 60 -139 212 -138 113 1
157 14 188 59 54 80 -1 200 -92 200 -24 0 -26 -3 -26 -44 0 -40 2 -44 29 -49
34 -7 46 -31 25 -52 -21 -21 -221 -22 -250 -1 -15 12 -17 18 -8 33 6 10 21 19
33 21 18 3 21 10 21 48 0 41 -2 44 -27 44 -16 -1 -38 -6 -51 -13z"/>
<path d="M980 8313 c-90 -33 -120 -72 -120 -158 0 -73 23 -113 87 -147 124
-67 417 -63 509 7 50 38 67 78 62 145 -6 89 -57 141 -154 157 -33 6 -34 5 -34
-30 0 -32 3 -35 35 -41 78 -15 118 -94 75 -148 -32 -41 -109 -60 -249 -60
-190 -1 -271 35 -271 119 0 42 35 78 85 87 32 6 35 10 35 41 0 30 -3 35 -22
34 -13 0 -30 -3 -38 -6z"/>
<path d="M8470 8020 l0 -240 65 0 65 0 0 85 0 85 335 0 335 0 0 70 0 70 -335
0 -334 0 -3 83 -3 82 -62 3 -63 3 0 -241z"/>
<path d="M7710 8164 c0 -50 -25 -41 250 -100 165 -35 224 -54 171 -54 -32 0
-404 -80 -414 -90 -5 -4 -7 -25 -5 -47 l3 -41 270 67 270 67 3 51 3 52 -38 10
c-21 5 -145 37 -275 69 l-238 60 0 -44z"/>
<path d="M5140 8120 l0 -30 255 0 255 0 0 30 0 30 -255 0 -255 0 0 -30z"/>
<path d="M9470 7985 l0 -95 190 0 190 0 0 95 c0 95 0 95 -25 95 -24 0 -25 -2
-25 -65 l0 -65 -60 0 -60 0 0 60 c0 57 -1 60 -25 60 -24 0 -25 -3 -25 -60 l0
-60 -55 0 -55 0 0 65 c0 63 -1 65 -25 65 -25 0 -25 0 -25 -95z"/>
<path d="M1716 8043 c-3 -4 -6 -26 -6 -50 l0 -43 206 0 205 0 -3 48 -3 47
-196 2 c-108 1 -200 -1 -203 -4z"/>
<path d="M2359 8015 c-15 -8 -34 -32 -43 -55 -20 -50 -21 -168 -2 -215 38 -90
183 -81 211 13 5 19 3 22 -18 22 -18 0 -27 -7 -31 -23 -13 -53 -96 -54 -116
-2 -14 37 -12 175 3 205 15 30 61 49 85 34 9 -6 23 -23 30 -38 9 -17 20 -26
30 -24 25 5 17 49 -14 76 -30 26 -94 29 -135 7z"/>
<path d="M2590 7860 c0 -163 1 -170 20 -170 18 0 20 7 20 75 l0 75 49 0 c27 0
53 -6 59 -13 6 -7 12 -40 14 -72 3 -54 5 -60 27 -63 23 -4 23 -2 19 62 -3 44
-10 71 -22 85 -17 19 -17 20 3 40 23 23 28 79 11 111 -14 26 -63 40 -136 40
l-64 0 0 -170z m146 115 c19 -19 23 -31 18 -48 -12 -39 -25 -47 -75 -47 l-49
0 0 53 c0 30 3 57 7 60 16 17 75 6 99 -18z"/>
<path d="M2870 7860 l0 -171 97 3 c66 2 98 7 101 16 3 9 -17 12 -77 12 l-81 0
0 65 0 65 70 0 c55 0 70 3 70 15 0 11 -16 15 -67 17 l-68 3 0 54 0 54 70 1
c58 1 70 4 73 19 3 15 -6 17 -92 17 l-96 0 0 -170z"/>
<path d="M3120 7860 l0 -170 74 0 c65 0 78 3 105 26 35 29 51 77 51 154 0 110
-52 160 -167 160 l-63 0 0 -170z m155 109 c17 -17 20 -33 20 -108 0 -81 -2
-92 -24 -115 -18 -19 -35 -26 -63 -26 l-38 0 0 141 0 142 43 -7 c23 -4 51 -16
62 -27z"/>
<path d="M3420 7860 c0 -163 1 -170 20 -170 19 0 20 7 20 170 0 163 -1 170
-20 170 -19 0 -20 -7 -20 -170z"/>
<path d="M3505 8020 c-12 -19 6 -30 51 -30 l44 0 0 -150 c0 -143 1 -150 20
-150 19 0 20 7 20 150 l0 150 43 0 c48 0 58 5 50 26 -4 11 -30 14 -113 14 -62
0 -111 -4 -115 -10z"/>
<path d="M3934 8015 c-37 -25 -54 -77 -54 -162 0 -127 39 -178 129 -170 46 5
84 34 96 75 5 19 3 22 -18 22 -16 0 -26 -7 -30 -19 -7 -27 -52 -54 -77 -46
-38 12 -53 50 -53 138 -1 46 5 92 11 104 29 52 91 54 117 3 15 -30 38 -39 50
-20 8 13 -22 67 -44 80 -29 15 -103 12 -127 -5z"/>
<path d="M4235 8018 c-2 -7 -22 -77 -45 -155 -22 -77 -43 -148 -46 -157 -5
-12 0 -16 18 -16 21 0 26 7 37 50 l13 50 59 0 c40 0 59 -4 59 -12 0 -7 5 -30
11 -50 8 -31 14 -38 36 -38 16 0 23 5 20 13 -3 9 -66 218 -93 310 -6 20 -62
24 -69 5z m55 -107 c11 -37 20 -71 20 -75 0 -3 -20 -6 -43 -6 l-44 0 20 75
c11 41 22 75 23 75 2 0 12 -31 24 -69z"/>
<path d="M4450 7861 c0 -164 1 -171 20 -171 18 0 20 7 20 75 l0 75 44 0 c62 0
76 -17 76 -91 0 -57 1 -59 26 -59 27 0 27 0 21 65 -3 43 -11 73 -23 86 -17 18
-16 20 4 42 29 31 28 78 -2 114 -22 25 -31 28 -105 31 l-81 4 0 -171z m145
119 c18 -15 20 -71 3 -88 -7 -7 -34 -12 -60 -12 l-48 0 0 53 c0 30 3 57 8 61
10 11 80 0 97 -14z"/>
<path d="M4730 7860 l0 -170 68 0 c37 0 78 6 91 13 39 19 63 71 68 145 4 56 1
74 -19 112 -27 53 -62 69 -150 69 l-58 1 0 -170z m112 129 c54 -14 71 -52 66
-147 -3 -66 -6 -77 -31 -98 -19 -17 -40 -24 -68 -24 l-39 0 0 133 c0 74 3 137
7 140 9 9 22 9 65 -4z"/>
<path d="M5422 8000 c-18 -11 -35 -27 -39 -36 -5 -13 -9 -12 -28 6 -51 48
-138 45 -186 -6 -21 -23 -24 -36 -27 -120 l-4 -94 256 0 256 0 0 85 c0 99 -14
136 -63 165 -43 27 -121 26 -165 0z m133 -44 c35 -15 55 -57 55 -118 l0 -28
-106 0 -106 0 4 55 c6 75 29 98 101 104 10 0 33 -5 52 -13z m-225 -26 c15 -15
20 -33 20 -70 l0 -50 -80 0 -80 0 0 50 c0 64 23 90 80 90 27 0 47 -7 60 -20z"/>
<path d="M1450 7780 l0 -120 -125 0 -125 0 0 110 0 110 -30 0 -30 0 0 -110 0
-110 -105 0 -105 0 0 116 0 115 -32 -3 -33 -3 0 -145 0 -145 323 -3 322 -2 0
149 c0 146 0 149 -22 155 -13 3 -26 6 -30 6 -5 0 -8 -54 -8 -120z"/>
<path d="M1810 7889 c-73 -22 -100 -71 -100 -184 l0 -75 205 0 205 0 0 83 c0
95 -18 135 -72 163 -39 20 -187 28 -238 13z m210 -102 c14 -7 26 -23 28 -35 3
-22 2 -22 -132 -22 -105 0 -136 3 -136 13 0 17 21 43 40 50 30 11 175 6 200
-6z"/>
<path d="M9470 7740 l0 -110 25 0 c22 0 25 4 25 40 l0 40 163 2 162 3 3 28 3
27 -165 0 -166 0 0 40 c0 36 -2 40 -25 40 l-25 0 0 -110z"/>
<path d="M7849 7787 c-99 -23 -149 -74 -149 -155 0 -117 69 -168 245 -179 205
-12 325 48 325 164 0 83 -37 133 -120 162 -52 18 -235 23 -301 8z m270 -90
c28 -8 52 -22 65 -40 19 -26 19 -30 5 -55 -8 -15 -28 -33 -44 -41 -35 -17
-182 -26 -259 -17 -64 8 -116 44 -116 80 0 29 40 66 82 76 50 12 217 10 267
-3z"/>
<path d="M8626 7719 c-58 -14 -99 -43 -126 -91 -23 -40 -25 -55 -28 -205 l-4
-163 401 0 401 0 0 70 0 70 -170 0 -170 0 0 44 c0 109 28 128 204 135 l131 6
3 68 3 68 -143 -6 c-153 -8 -216 -25 -237 -64 -11 -20 -13 -19 -50 18 -29 29
-52 42 -90 50 -59 13 -71 13 -125 0z m117 -140 c49 -13 66 -41 69 -114 l3 -60
-112 -3 -113 -3 0 63 c0 74 16 103 63 117 43 12 46 12 90 0z"/>
<path d="M5390 7636 l-245 -62 -3 -37 c-2 -20 -1 -37 2 -37 6 0 464 -109 489
-116 13 -4 17 1 17 24 0 28 -2 29 -80 46 l-81 17 3 67 3 66 40 9 c113 25 115
26 115 57 0 17 -3 30 -7 29 -5 0 -118 -29 -253 -63z m50 -100 l0 -53 -112 24
c-62 13 -114 26 -116 27 -3 4 190 53 216 55 8 1 12 -16 12 -53z"/>
<path d="M9653 7613 l-183 -45 0 -38 c0 -35 3 -39 33 -45 17 -4 99 -22 180
-41 82 -19 153 -34 158 -34 6 0 9 12 7 28 -3 24 -9 28 -50 36 -47 9 -48 10
-48 48 0 21 -1 41 -2 46 -1 4 20 12 47 17 46 10 50 13 53 43 2 18 0 31 -5 31
-4 -1 -90 -22 -190 -46z m37 -83 c0 -34 0 -34 -90 -16 -67 14 -66 18 10 34 76
16 80 15 80 -18z"/>
<path d="M2048 7523 l-3 -68 -47 -3 -47 -3 -3 63 -3 63 -35 0 -35 0 -3 -62 -3
-63 -39 0 -40 0 0 65 0 65 -40 0 -40 0 0 -110 0 -110 205 0 205 0 0 109 c0
115 -3 121 -50 121 -17 0 -19 -9 -22 -67z"/>
<path d="M6139 7527 c-19 -12 -48 -45 -66 -72 -60 -94 -62 -96 -96 -93 -27 2
-33 8 -35 31 -3 23 1 28 27 33 30 6 31 8 31 60 0 52 -1 54 -27 54 -91 0 -150
-116 -109 -213 22 -53 50 -71 119 -75 77 -4 114 16 153 85 54 95 95 121 139
90 28 -21 13 -66 -25 -74 -29 -5 -30 -7 -30 -61 l0 -55 42 6 c28 4 51 15 72
36 27 27 31 39 34 99 5 81 -12 122 -61 152 -46 28 -124 27 -168 -3z"/>
<path d="M2399 7517 c-19 -12 -45 -44 -59 -72 -23 -47 -25 -60 -25 -200 0
-138 2 -154 24 -198 30 -62 70 -87 136 -87 101 0 149 60 167 211 14 109 -1
231 -34 293 -41 74 -140 99 -209 53z m124 -57 c36 -29 47 -76 47 -210 0 -177
-25 -234 -98 -228 -72 6 -99 90 -90 277 6 128 33 180 94 181 12 0 33 -9 47
-20z"/>
<path d="M2690 7518 c0 -7 31 -134 68 -283 l68 -270 36 -3 c27 -2 39 2 46 15
5 10 35 119 66 243 32 124 62 238 67 254 15 49 12 56 -26 56 -19 0 -35 -2 -35
-4 0 -13 -110 -470 -115 -474 -3 -3 -5 5 -5 17 0 20 -81 396 -96 444 -6 20
-74 25 -74 5z"/>
<path d="M3112 7248 l3 -283 129 -3 c137 -3 146 0 146 46 0 21 -3 22 -105 22
l-105 0 0 100 0 100 95 0 95 0 0 30 0 29 -92 3 -93 3 -3 88 -3 87 101 0 100 0
0 30 0 30 -135 0 -135 0 2 -282z"/>
<path d="M3462 7248 l3 -283 30 0 30 0 3 128 3 127 54 0 c89 0 93 -7 108 -220
2 -32 5 -35 35 -38 l33 -3 -6 108 c-7 119 -18 158 -47 174 -20 11 -20 11 1 25
49 35 67 134 36 195 -29 54 -67 69 -183 69 l-102 0 2 -282z m208 195 c18 -23
21 -37 17 -76 -6 -64 -23 -80 -97 -85 l-60 -4 0 96 0 96 59 0 c53 0 62 -3 81
-27z"/>
<path d="M3852 7248 l3 -283 87 2 c119 2 153 19 193 98 29 57 30 66 30 185 0
149 -16 205 -73 248 -32 25 -44 27 -139 30 l-103 4 2 -284z m186 206 c47 -32
57 -70 57 -204 -1 -170 -25 -215 -124 -227 l-51 -6 0 227 0 226 48 0 c27 0 57
-7 70 -16z"/>
<path d="M4260 7300 c0 -258 5 -285 62 -320 45 -27 140 -28 185 0 62 37 67 59
71 318 l4 232 -36 0 -36 0 0 -202 c-1 -280 -9 -308 -95 -308 -30 0 -47 6 -61
21 -17 19 -19 41 -22 255 l-3 234 -35 0 -34 0 0 -230z"/>
<path d="M4682 7248 l3 -283 128 -3 127 -3 10 27 c6 14 8 30 4 35 -3 5 -50 9
-105 9 l-99 0 0 100 0 99 93 3 92 3 0 29 0 28 -90 2 -90 1 -3 88 -3 87 101 0
100 0 0 30 0 30 -135 0 -135 0 2 -282z"/>
<path d="M1450 7406 l0 -116 -296 0 -295 0 3 -32 3 -33 323 -3 323 -2 -3 147
-3 148 -27 3 -28 3 0 -115z"/>
<path d="M7771 7352 c-43 -23 -71 -74 -71 -130 0 -132 101 -188 319 -180 177
7 251 51 251 151 0 42 -24 97 -43 98 -6 0 -2 5 11 11 15 8 22 20 22 40 l0 28
-155 0 -155 0 0 -80 0 -80 40 0 40 0 0 40 c0 40 0 40 38 40 67 0 108 -17 123
-52 10 -26 10 -35 -2 -57 -23 -42 -76 -53 -221 -49 -110 3 -131 7 -155 24 -59
44 -50 114 17 129 27 6 30 10 30 46 0 36 -2 39 -28 39 -15 0 -43 -8 -61 -18z"/>
<path d="M9512 7363 c-25 -10 -42 -62 -42 -133 l0 -70 190 0 190 0 0 30 0 30
-86 0 -87 0 6 37 c8 45 19 53 84 53 67 0 83 7 83 37 0 25 0 25 -80 21 -56 -2
-84 -8 -96 -19 -15 -16 -18 -15 -35 2 -18 18 -93 26 -127 12z m110 -61 c4 -4
9 -23 10 -42 l3 -35 -57 -3 -58 -3 0 35 c0 25 6 39 23 51 21 15 62 13 79 -3z"/>
<path d="M5140 7295 l0 -25 255 0 255 0 0 25 0 25 -255 0 -255 0 0 -25z"/>
<path d="M1712 7233 l3 -67 80 -13 c161 -26 160 -25 35 -42 l-115 -16 -3 -67
-3 -68 206 0 205 0 0 40 0 40 -152 1 c-166 1 -157 7 40 30 l112 12 0 38 c0 45
10 41 -170 68 l-125 19 148 1 147 1 0 45 0 45 -205 0 -206 0 3 -67z"/>
<path d="M5600 7120 l0 -90 -230 0 -230 0 0 -25 0 -25 255 0 255 0 0 115 0
115 -25 0 c-25 0 -25 -1 -25 -90z"/>
<path d="M6270 7116 l0 -86 -60 0 -60 0 0 75 0 75 -45 0 -45 0 0 -75 0 -75
-50 0 -49 0 -3 78 -3 77 -47 3 -48 3 0 -136 0 -135 253 2 252 3 3 124 c1 68
-1 128 -5 132 -4 4 -27 10 -50 14 l-43 7 0 -86z"/>
<path d="M1450 7035 l0 -115 -296 0 -295 0 3 -32 3 -33 323 -3 322 -2 0 150 0
150 -30 0 -30 0 0 -115z"/>
<path d="M8702 7139 c-156 -26 -242 -113 -242 -245 0 -165 146 -255 413 -254
181 1 318 43 372 114 37 49 52 129 36 201 -23 102 -101 162 -242 184 -75 13
-262 12 -337 0z m305 -139 c118 -15 172 -56 158 -120 -14 -65 -107 -92 -306
-92 -149 0 -226 18 -258 58 -37 47 -20 103 38 130 64 31 232 42 368 24z"/>
<path d="M9680 7060 c0 -57 1 -60 25 -60 24 0 25 3 25 60 0 57 -1 60 -25 60
-24 0 -25 -3 -25 -60z"/>
<path d="M9575 6951 c-78 -19 -105 -58 -105 -151 l0 -60 191 0 191 0 -4 70
c-3 60 -8 73 -32 99 -42 44 -153 63 -241 42z m147 -57 c48 -8 78 -37 78 -74
l0 -30 -140 0 -140 0 0 28 c0 16 6 36 13 45 22 31 105 45 189 31z"/>
<path d="M6227 6838 l-128 -52 -102 42 c-56 22 -110 44 -120 48 -16 6 -18 1
-15 -52 l3 -58 67 -21 c37 -11 69 -23 72 -26 3 -3 -28 -15 -69 -27 l-75 -22 0
-60 c0 -33 3 -60 7 -60 4 0 60 21 124 46 l117 47 117 -47 c65 -25 125 -46 132
-46 11 0 13 13 11 53 l-3 52 -80 27 c-44 15 -82 28 -85 29 -3 0 33 13 80 28
l85 27 3 62 c2 34 -1 62 -5 61 -4 0 -66 -23 -136 -51z"/>
<path d="M7080 6862 c-56 -28 -74 -71 -78 -187 -5 -122 8 -177 53 -222 29 -29
39 -33 89 -33 47 0 60 4 89 30 44 38 57 86 57 206 0 76 -5 109 -20 141 -34 76
-115 103 -190 65z m112 -92 c21 -40 25 -171 8 -232 -22 -77 -88 -68 -111 14
-16 60 -7 199 15 233 25 38 65 31 88 -15z"/>
<path d="M6572 6648 l3 -223 35 0 35 0 -1 177 c0 98 1 176 3 174 2 -2 12 -59
23 -127 38 -233 37 -229 75 -229 18 0 35 6 38 13 2 6 17 82 32 167 16 85 31
158 34 162 3 4 6 -70 6 -165 l0 -172 38 -3 37 -3 0 225 0 226 -59 0 c-53 0
-59 -2 -64 -22 -3 -13 -15 -72 -27 -133 -11 -60 -24 -117 -27 -125 -5 -13 -50
214 -52 263 -1 14 -11 17 -66 17 l-65 0 2 -222z"/>
<path d="M7360 6646 l0 -226 35 0 35 0 2 163 3 162 54 -150 c30 -82 58 -156
64 -162 5 -7 27 -13 48 -13 l39 0 0 225 0 225 -35 0 -34 0 -3 -146 -3 -147
-55 144 -55 144 -47 3 -48 3 0 -225z"/>
<path d="M7722 6648 l3 -223 109 -3 c60 -1 112 1 116 5 4 4 10 20 14 35 l6 27
-82 3 -83 3 -3 63 -3 62 76 0 75 0 0 35 0 34 -72 3 -73 3 -3 53 -3 52 80 0 81
0 0 35 0 35 -120 0 -120 0 2 -222z"/>
<path d="M7999 6848 c5 -13 32 -77 60 -143 48 -112 51 -125 51 -203 l0 -83 38
3 37 3 6 95 c4 72 12 108 31 150 14 30 39 88 56 128 l31 72 -43 0 -44 0 -33
-94 c-19 -52 -36 -92 -39 -90 -2 3 -19 44 -36 92 l-31 87 -46 3 c-45 3 -47 2
-38 -20z"/>
<path d="M1857 6780 c-113 -28 -167 -100 -167 -223 0 -116 33 -154 231 -268
78 -45 105 -87 95 -154 -9 -56 -42 -85 -98 -85 -49 0 -93 40 -103 93 l-7 37
-69 0 -69 0 0 -38 c0 -53 44 -138 88 -167 84 -57 232 -56 316 2 77 53 113 171
82 275 -20 71 -74 125 -180 179 -95 49 -133 81 -141 120 -9 42 12 98 42 110
62 24 104 0 123 -70 l11 -41 71 0 71 0 -6 45 c-7 48 -28 97 -56 129 -42 47
-156 75 -234 56z"/>
<path d="M2210 6705 l0 -65 85 0 85 0 0 -345 0 -345 75 0 75 0 0 345 0 344 88
3 87 3 3 63 3 62 -251 0 -250 0 0 -65z"/>
<path d="M2780 6448 c0 -186 4 -338 10 -359 25 -90 94 -145 196 -155 126 -13
218 28 267 120 21 40 22 53 25 379 l3 337 -73 0 -73 0 3 -242 c4 -320 -2 -399
-35 -438 -21 -26 -32 -30 -72 -30 -55 0 -85 24 -101 81 -6 19 -10 168 -10 331
l0 298 -70 0 -70 0 0 -322z"/>
<path d="M3410 6359 l0 -411 158 4 c174 4 193 9 256 74 47 49 75 126 88 251 9
79 9 125 0 199 -14 114 -40 178 -90 227 -57 56 -102 67 -268 67 l-144 0 0
-411z m301 253 c41 -46 53 -101 53 -242 0 -144 -14 -214 -53 -260 -25 -30 -34
-34 -89 -38 l-62 -4 0 292 0 292 61 -4 c54 -4 66 -9 90 -36z"/>
<path d="M4030 6360 l0 -410 215 0 215 0 0 23 c0 12 3 39 6 60 l7 37 -147 0
-146 0 0 120 0 120 130 0 130 0 0 65 0 65 -130 0 -130 0 0 100 0 100 135 0
135 0 0 65 0 65 -210 0 -210 0 0 -410z"/>
<path d="M4560 6360 l0 -410 65 0 65 0 2 294 3 293 105 -293 105 -294 82 0 83
0 0 410 0 410 -72 0 -71 0 5 -282 c4 -185 2 -274 -4 -258 -5 14 -42 115 -83
225 -40 110 -83 226 -95 258 l-21 57 -85 0 -84 0 0 -410z"/>
<path d="M5142 6708 l3 -63 88 -3 87 -3 0 -344 0 -345 75 0 75 0 0 345 0 345
85 0 85 0 0 65 0 65 -250 0 -251 0 3 -62z"/>
<path d="M1050 6739 c-128 -21 -190 -80 -190 -179 0 -77 26 -116 105 -155 59
-30 62 -30 225 -30 163 0 166 0 225 30 74 37 97 68 103 139 9 107 -60 172
-208 196 -77 12 -183 11 -260 -1z m318 -84 c125 -38 120 -158 -9 -196 -56 -17
-290 -18 -345 -1 -62 18 -94 53 -94 101 0 32 6 44 31 65 17 14 43 29 57 32 15
3 32 7 37 9 33 11 277 3 323 -10z"/>
<path d="M9800 6626 l0 -66 -60 0 -59 0 -3 58 c-3 50 -6 57 -25 60 -22 3 -23
0 -23 -57 l0 -61 -55 0 -55 0 0 60 c0 57 -1 60 -25 60 -25 0 -25 -1 -25 -90
l0 -90 190 0 191 0 -3 93 c-3 87 -4 92 -25 95 -22 3 -23 0 -23 -62z"/>
<path d="M6115 6489 c-132 -26 -243 -48 -247 -48 -7 -1 -12 -161 -5 -161 1 0
114 -22 250 -49 186 -36 250 -45 254 -36 2 7 3 32 1 56 l-3 44 -53 8 -53 9 3
46 3 47 53 8 52 9 0 53 c0 30 -3 56 -7 58 -5 2 -116 -18 -248 -44z m45 -129
c0 -35 2 -34 -115 -16 -92 15 -95 13 108 45 4 0 7 -12 7 -29z"/>
<path d="M8472 6428 l3 -102 160 -32 c88 -18 208 -40 268 -50 99 -17 141 -34
82 -34 -32 0 -494 -78 -506 -86 -5 -3 -9 -50 -9 -105 l0 -99 400 0 400 0 0 60
0 60 -327 2 -328 3 310 48 c171 27 318 51 328 53 14 4 17 17 17 69 l0 63 -117
22 c-65 11 -215 38 -333 60 l-215 38 333 1 332 1 0 65 0 65 -400 0 -401 0 3
-102z"/>
<path d="M9746 6423 l-99 -46 -84 42 c-46 22 -85 41 -88 41 -3 0 -5 -13 -5
-28 0 -25 7 -31 68 -58 l67 -30 -65 -26 c-59 -23 -65 -29 -68 -57 -4 -39 3
-39 79 0 104 52 96 52 200 4 88 -41 94 -42 97 -23 6 34 -4 44 -67 68 -34 12
-63 26 -66 30 -2 4 27 19 65 34 68 27 70 29 70 62 0 19 -1 34 -2 33 -2 0 -48
-21 -102 -46z"/>
<path d="M11232 6403 c-68 -33 -96 -106 -96 -248 0 -120 14 -174 55 -214 27
-27 38 -31 85 -31 40 0 59 5 73 19 20 20 20 20 26 0 5 -16 14 -19 38 -17 l32
3 3 138 3 137 -81 0 -80 0 0 -35 c0 -34 1 -35 36 -35 l37 0 -6 -51 c-10 -83
-60 -115 -103 -68 -28 31 -33 248 -7 299 15 30 23 35 53 35 30 0 37 -5 49 -32
13 -29 19 -33 53 -33 35 0 38 2 38 28 0 91 -117 150 -208 105z"/>
<path d="M10030 6159 l0 -252 99 6 c148 8 191 42 191 151 0 48 -4 60 -31 91
-17 19 -27 35 -22 35 16 0 43 58 43 95 0 20 -7 49 -15 65 -24 47 -61 60 -170
60 l-95 0 0 -251z m171 171 c14 -8 19 -21 19 -50 0 -46 -31 -74 -77 -68 -27 3
-28 5 -31 66 l-3 62 36 0 c20 0 45 -5 56 -10z m11 -207 c23 -21 25 -105 2
-123 -8 -8 -34 -14 -57 -14 l-42 -1 -3 78 -3 77 42 0 c25 0 50 -7 61 -17z"/>
<path d="M10382 6208 c4 -224 11 -253 68 -283 43 -22 137 -20 178 5 55 34 62
65 62 285 l0 195 -45 0 -45 0 0 -195 c0 -182 -1 -196 -20 -215 -26 -26 -62
-25 -86 1 -17 19 -19 41 -22 215 l-3 194 -45 0 -46 0 4 -202z"/>
<path d="M10772 6163 l3 -248 47 -3 c71 -5 158 15 186 41 46 41 65 102 66 207
1 193 -49 250 -219 250 l-85 0 2 -247z m175 153 c28 -24 28 -25 28 -149 0
-119 -1 -127 -24 -151 -17 -18 -35 -26 -58 -26 l-33 0 0 175 0 175 29 0 c17 0
42 -10 58 -24z"/>
<path d="M11522 6163 l3 -248 119 -3 c66 -1 123 1 127 5 4 4 10 23 14 41 l7
32 -91 0 -91 0 0 75 0 75 80 0 80 0 0 35 0 35 -80 0 -80 0 0 60 0 59 83 3 82
3 3 38 3 37 -131 0 -130 0 2 -247z"/>
<path d="M11820 6370 l0 -40 55 0 55 0 0 -210 0 -210 40 0 40 0 0 210 0 210
55 0 55 0 0 40 0 40 -150 0 -150 0 0 -40z"/>
<path d="M943 6270 c-64 -28 -85 -69 -81 -154 4 -65 6 -70 45 -106 49 -46 112
-67 231 -76 164 -12 310 25 356 89 30 41 30 154 0 194 -24 34 -98 73 -136 73
-25 0 -28 -3 -28 -35 0 -30 3 -35 23 -35 12 0 37 -9 55 -20 71 -44 67 -118 -8
-160 -43 -24 -53 -25 -210 -25 -152 0 -168 2 -207 23 -48 25 -63 47 -63 92 0
40 36 76 84 85 33 7 36 10 36 41 0 30 -3 34 -27 34 -16 0 -47 -9 -70 -20z"/>
<path d="M6544 6237 c-2 -7 -3 -82 -2 -167 l3 -155 30 0 30 0 3 168 2 167 -30
0 c-17 0 -33 -6 -36 -13z"/>
<path d="M6670 6080 l0 -170 25 0 25 0 1 123 0 122 42 -112 c24 -62 48 -118
54 -124 6 -6 21 -9 34 -7 l24 3 3 168 2 167 -31 0 -31 0 4 -110 c2 -60 1 -106
-3 -102 -3 4 -23 53 -44 110 -37 102 -38 102 -71 102 l-34 0 0 -170z"/>
<path d="M6910 6226 c0 -21 5 -25 38 -28 l37 -3 3 -143 3 -143 27 3 27 3 3
143 3 142 34 0 c31 0 35 3 35 25 l0 25 -105 0 c-105 0 -105 0 -105 -24z"/>
<path d="M7154 6237 c-2 -7 -3 -82 -2 -167 l3 -155 86 -3 c83 -3 87 -2 93 20
3 13 6 26 6 31 0 4 -27 7 -60 7 l-60 0 0 44 0 45 53 3 c48 3 52 5 52 28 0 23
-4 25 -52 28 l-53 3 0 40 0 39 55 0 c52 0 55 1 55 25 0 25 -1 25 -85 25 -61 0
-87 -4 -91 -13z"/>
<path d="M7380 6079 l0 -170 28 3 c26 3 27 5 30 76 3 69 4 72 27 72 31 0 38
-12 50 -85 9 -55 12 -60 35 -60 24 0 25 2 24 62 0 37 -7 71 -16 84 -13 20 -13
24 4 41 34 34 17 116 -29 137 -13 6 -53 11 -88 11 l-65 0 0 -171z m128 109 c7
-7 12 -21 12 -33 0 -29 -19 -45 -52 -45 -27 0 -28 2 -28 45 0 43 1 45 28 45
15 0 33 -5 40 -12z"/>
<path d="M7630 6080 l0 -171 88 3 c87 3 87 3 90 31 3 27 3 27 -57 27 l-61 0 0
45 0 45 55 0 c54 0 55 0 55 30 0 30 -1 30 -55 30 l-55 0 0 40 0 40 59 0 c57 0
58 1 53 25 -4 24 -7 25 -88 25 l-84 0 0 -170z"/>
<path d="M7875 6225 c-18 -17 -25 -35 -25 -64 0 -42 21 -66 89 -103 40 -22 59
-61 41 -83 -19 -22 -63 -15 -75 13 -7 15 -18 22 -37 22 -38 0 -37 -32 1 -71
64 -64 181 -21 181 66 0 40 -34 81 -101 120 -38 22 -48 55 -25 74 20 17 46 7
53 -19 8 -29 63 -28 63 0 0 38 -44 70 -95 70 -35 0 -52 -6 -70 -25z"/>
<path d="M8070 6225 c0 -22 4 -25 35 -25 l34 0 3 -142 3 -143 27 -3 27 -3 3
143 3 143 38 3 c32 3 37 7 37 28 0 24 0 24 -105 24 l-105 0 0 -25z"/>
<path d="M5860 6055 l0 -156 48 3 47 3 3 48 3 47 205 0 204 0 0 55 0 55 -204
0 -205 0 -3 48 -3 47 -47 3 -48 3 0 -156z"/>
<path d="M9470 6160 l0 -30 190 0 190 0 0 30 0 30 -190 0 -190 0 0 -30z"/>
<path d="M9477 6083 c-4 -3 -7 -46 -7 -95 l0 -88 190 0 190 0 0 30 0 30 -85 0
-85 0 0 60 c0 57 -1 60 -25 60 -24 0 -25 -3 -25 -60 l0 -60 -55 0 -55 0 0 65
c0 56 -2 65 -18 65 -10 0 -22 -3 -25 -7z"/>
<path d="M0 5536 l0 -226 40 0 40 0 0 95 0 95 34 0 c48 0 66 -22 66 -79 0 -27
3 -63 6 -80 6 -28 10 -31 46 -31 l40 0 -7 88 c-4 59 -12 95 -25 112 -17 25
-17 27 6 53 36 42 34 116 -5 159 -29 33 -30 33 -135 36 l-106 4 0 -226z m177
137 c18 -23 16 -68 -3 -87 -9 -9 -32 -16 -55 -16 l-39 0 0 58 c0 32 3 62 8 66
12 13 76 -2 89 -21z"/>
<path d="M330 5535 l0 -225 119 0 c126 0 131 2 131 51 0 17 -8 19 -80 19 l-80
0 0 65 0 65 70 0 70 0 0 35 0 35 -70 0 -70 0 0 55 0 55 75 0 75 0 0 35 0 35
-120 0 -120 0 0 -225z"/>
<path d="M630 5535 l0 -225 40 0 40 0 0 89 0 88 58 6 c67 6 93 19 116 58 20
34 21 111 1 149 -24 46 -62 60 -165 60 l-90 0 0 -225z m177 138 c18 -24 16
-78 -3 -97 -9 -9 -32 -16 -55 -16 l-39 0 0 63 c0 35 3 67 8 71 12 13 76 -2 89
-21z"/>
<path d="M995 5748 c-2 -7 -25 -101 -50 -208 -25 -107 -48 -203 -51 -213 -5
-16 0 -18 38 -15 l43 3 9 53 9 53 56 -3 56 -3 9 -52 9 -53 44 0 c32 0 44 4 41
13 -3 6 -27 108 -54 224 l-49 213 -53 0 c-33 0 -54 -5 -57 -12z m74 -160 c6
-37 14 -75 17 -83 5 -12 -3 -15 -36 -15 -39 0 -42 2 -36 23 3 12 11 53 18 90
6 37 14 64 18 60 4 -4 13 -38 19 -75z"/>
<path d="M1173 5748 c3 -7 30 -73 61 -147 52 -124 56 -139 56 -212 l0 -79 40
0 40 0 0 84 c0 79 3 90 59 222 l58 139 -39 3 c-22 2 -42 1 -44 -1 -3 -2 -20
-49 -38 -103 -20 -57 -37 -93 -40 -84 -3 8 -19 53 -34 100 l-29 85 -48 3 c-36
2 -46 0 -42 -10z"/>
<path d="M1520 5535 l0 -225 41 0 42 0 -6 183 c-4 100 -4 177 -1 171 3 -7 17
-88 32 -180 l27 -169 40 0 40 0 30 168 c16 92 32 167 35 167 3 0 4 -76 2 -170
l-3 -170 41 0 40 0 0 225 0 225 -59 0 -59 0 -10 -47 c-6 -27 -18 -91 -28 -143
-10 -52 -20 -98 -23 -102 -3 -4 -17 60 -30 143 l-24 149 -64 0 -63 0 0 -225z"/>
<path d="M1960 5535 l0 -225 119 0 119 0 4 30 c3 17 2 32 0 35 -3 3 -41 5 -84
5 l-78 0 0 65 0 65 75 0 75 0 0 35 0 35 -75 0 -75 0 0 55 0 55 80 0 80 0 0 35
0 35 -120 0 -120 0 0 -225z"/>
<path d="M2260 5536 l0 -226 35 0 34 0 3 158 3 157 56 -155 57 -155 46 -3 46
-3 0 225 0 226 -35 0 -34 0 -3 -152 -3 -152 -55 149 -55 150 -47 3 -48 3 0
-225z"/>
<path d="M2582 5728 c3 -32 5 -33 51 -36 l47 -3 0 -190 0 -189 45 0 45 0 0
190 0 190 45 0 c45 0 45 0 45 35 l0 35 -141 0 -140 0 3 -32z"/>
<path d="M3640 4985 l0 -765 264 0 c145 0 285 4 312 9 215 41 345 182 399 430
28 129 40 341 27 490 -20 237 -67 368 -168 468 -111 112 -201 133 -566 133
l-268 0 0 -765z m517 475 c93 -42 118 -141 116 -465 -1 -251 -14 -354 -55
-428 -30 -53 -68 -74 -151 -83 l-67 -7 0 502 0 501 58 0 c34 0 74 -8 99 -20z"/>
<path d="M4840 4985 l0 -765 415 0 415 0 5 23 c5 26 35 233 35 247 0 6 -105
11 -262 12 l-263 3 0 180 0 180 233 3 232 2 0 145 0 145 -235 0 -235 0 0 150
0 150 245 0 245 0 0 145 0 145 -415 0 -415 0 0 -765z"/>
<path d="M5860 4985 l0 -765 303 0 c241 0 315 3 362 15 134 35 216 99 269 208
105 216 38 502 -136 579 -15 7 -28 15 -28 18 0 3 16 14 36 25 44 24 80 66 107
125 17 37 21 66 21 165 1 102 -3 128 -22 177 -43 106 -144 184 -272 208 -29 5
-185 10 -346 10 l-294 0 0 -765z m550 480 c13 -11 29 -34 36 -52 18 -42 18
-144 0 -188 -22 -51 -54 -66 -151 -73 l-85 -5 0 173 0 172 89 -4 c72 -2 93 -7
111 -23z m-6 -583 c58 -34 70 -63 74 -176 4 -87 1 -110 -16 -149 -29 -65 -57
-80 -163 -85 l-89 -4 0 222 0 223 83 -7 c46 -4 95 -15 111 -24z"/>
<path d="M6892 5608 l3 -143 153 -3 152 -3 0 -619 0 -620 175 0 175 0 0 620 0
620 150 0 150 0 0 145 0 145 -480 0 -481 0 3 -142z"/>
<path d="M9300 5738 c-124 -35 -187 -199 -160 -420 20 -168 83 -238 217 -238
111 0 182 46 208 134 8 27 15 51 15 53 0 2 -20 3 -43 3 -42 0 -44 -2 -55 -38
-16 -53 -52 -83 -104 -89 -55 -5 -97 20 -124 73 -26 55 -33 278 -10 357 22 74
60 107 125 107 60 0 96 -26 112 -81 11 -37 15 -39 51 -39 36 0 38 2 38 30 0
111 -137 186 -270 148z"/>
<path d="M9833 5741 c-54 -14 -103 -59 -131 -120 -22 -47 -27 -74 -30 -174
-10 -258 59 -367 228 -367 162 0 230 99 230 335 0 172 -33 260 -113 305 -42
24 -132 34 -184 21z m150 -89 c45 -42 60 -113 55 -260 -5 -188 -42 -252 -144
-252 -29 0 -44 8 -74 38 -49 49 -64 116 -58 272 3 99 7 122 29 160 44 82 130
100 192 42z"/>
<path d="M10998 5741 c-121 -39 -178 -168 -165 -375 12 -196 84 -286 229 -286
112 1 176 47 213 155 22 63 26 265 6 342 -15 63 -59 126 -101 148 -36 19 -144
28 -182 16z m138 -76 c50 -32 79 -157 70 -295 -7 -107 -29 -172 -69 -206 -27
-23 -38 -26 -81 -21 -96 9 -130 80 -131 272 0 124 11 175 47 227 32 46 110 57
164 23z"/>
<path d="M12516 5736 c-62 -23 -88 -48 -121 -112 -30 -58 -30 -62 -30 -214 0
-172 8 -210 58 -266 40 -46 86 -64 164 -64 102 0 179 52 203 138 14 53 15 52
-34 52 -41 0 -44 -2 -50 -31 -9 -48 -66 -99 -110 -99 -101 0 -138 64 -144 246
-5 143 12 220 58 265 24 24 37 29 80 29 44 0 56 -4 81 -29 16 -16 32 -43 35
-60 6 -29 9 -31 51 -31 l45 0 -7 33 c-12 56 -48 109 -87 130 -50 25 -142 31
-192 13z"/>
<path d="M3020 5703 c0 -38 2 -40 78 -84 l77 -44 -77 -3 -78 -3 0 -35 0 -34
183 2 182 3 3 33 3 32 -64 0 c-47 0 -71 5 -86 18 -21 17 -20 17 64 50 84 33
85 34 85 68 0 19 -3 34 -7 34 -4 0 -55 -21 -114 -46 l-106 -47 -59 40 c-89 60
-84 59 -84 16z"/>
<path d="M8680 5415 l0 -325 184 0 c182 0 184 0 190 23 3 12 6 25 6 30 0 4
-65 7 -145 7 l-145 0 0 125 0 125 130 0 130 0 0 30 0 30 -130 0 -130 0 0 110
0 110 135 0 135 0 0 30 0 30 -180 0 -180 0 0 -325z"/>
<path d="M10260 5415 l0 -325 40 0 40 0 0 273 0 272 129 -270 128 -270 52 -3
51 -3 0 325 0 326 -41 0 -42 0 5 -266 5 -267 -120 244 c-65 134 -123 254 -128
267 -7 19 -16 22 -64 22 l-55 0 0 -325z"/>
<path d="M11430 5415 l0 -325 41 0 42 0 -5 293 -5 292 75 -292 76 -293 42 0
43 0 22 73 c12 39 48 167 80 282 l58 210 0 -282 1 -283 45 0 45 0 -2 323 -3
322 -63 3 c-60 3 -63 2 -73 -25 -20 -51 -139 -471 -139 -489 0 -37 -15 1 -40
104 -15 59 -47 176 -70 260 l-43 152 -64 0 -63 0 0 -325z"/>
<path d="M12140 5415 l0 -325 45 0 45 0 0 325 0 325 -45 0 -45 0 0 -325z"/>
<path d="M8278 5713 c-14 -9 -37 -34 -50 -55 -56 -94 -64 -103 -91 -106 -60
-7 -82 60 -27 81 26 10 30 16 30 49 0 34 -3 38 -26 38 -16 0 -39 -13 -60 -34
-30 -30 -34 -40 -34 -85 0 -92 37 -131 124 -131 56 0 86 24 126 99 17 32 42
64 55 71 56 30 114 -24 81 -75 -9 -14 -25 -25 -36 -25 -17 0 -20 -7 -20 -44
l0 -44 35 8 c20 4 42 14 51 21 65 54 56 190 -15 232 -37 21 -108 21 -143 0z"/>
<path d="M3020 5410 l0 -30 123 0 122 -1 -95 -35 c-52 -20 -107 -40 -122 -46
-24 -8 -28 -16 -28 -49 l0 -39 185 0 185 0 0 30 0 29 -130 3 -131 3 128 46
128 45 3 37 3 37 -185 0 -186 0 0 -30z"/>
<path d="M8020 5360 l0 -40 225 0 225 0 0 40 0 40 -225 0 -225 0 0 -40z"/>
<path d="M8275 5242 c-17 -10 -43 -43 -59 -73 -39 -73 -54 -89 -86 -89 -31 0
-50 17 -50 45 0 26 18 45 42 45 14 0 18 8 18 40 0 33 -3 40 -20 40 -62 0 -100
-49 -100 -131 0 -45 4 -55 34 -85 28 -28 41 -34 78 -34 61 0 98 27 136 98 18
34 42 66 52 72 33 18 68 12 86 -15 21 -33 6 -71 -31 -81 -21 -5 -25 -12 -25
-45 0 -33 3 -39 20 -39 37 0 81 30 96 65 30 72 9 162 -45 189 -40 21 -109 20
-146 -2z"/>
<path d="M3197 5137 l-178 -42 3 -45 3 -45 155 -35 c85 -20 167 -39 183 -43
26 -7 27 -6 27 27 0 33 -3 36 -37 41 -61 10 -63 12 -63 54 0 42 1 43 68 56 29
6 32 10 32 41 0 19 -3 34 -7 33 -5 0 -88 -19 -186 -42z m43 -88 c0 -30 -1 -31
-32 -25 -18 4 -50 9 -70 13 -21 3 -38 9 -38 13 0 5 75 22 128 29 7 0 12 -11
12 -30z"/>
<path d="M2029 5116 c-48 -27 -64 -78 -64 -201 0 -154 24 -195 114 -195 48 0
87 30 100 78 9 29 8 32 -14 32 -16 0 -25 -7 -29 -25 -4 -14 -18 -32 -32 -41
-24 -16 -27 -16 -52 3 -34 25 -40 48 -41 156 -1 103 15 153 52 162 35 9 67
-11 74 -46 8 -41 43 -41 43 0 0 67 -89 112 -151 77z"/>
<path d="M740 4920 l0 -200 25 0 c25 0 25 0 25 95 l0 95 65 0 c58 0 65 2 65
20 0 18 -7 20 -65 20 l-65 0 0 65 0 64 67 3 c55 2 68 6 71 21 3 15 -6 17 -92
17 l-96 0 0 -200z"/>
<path d="M980 4920 c0 -193 1 -200 20 -200 19 0 20 7 20 200 0 193 -1 200 -20
200 -19 0 -20 -7 -20 -200z"/>
<path d="M1100 4920 c0 -193 1 -200 20 -200 19 0 20 8 22 167 l3 167 65 -167
c62 -160 66 -167 92 -167 l28 0 0 200 c0 193 -1 200 -20 200 -19 0 -20 -7 -20
-157 0 -86 -4 -153 -8 -147 -4 5 -34 75 -66 157 -56 142 -59 147 -87 147 l-29
0 0 -200z"/>
<path d="M1461 5083 c-24 -87 -81 -335 -81 -348 0 -8 8 -15 18 -15 14 0 22 14
33 63 l14 62 52 3 52 3 9 -38 c6 -21 13 -50 16 -65 5 -22 12 -28 32 -28 21 0
25 4 20 17 -6 15 -96 372 -96 380 0 2 -13 3 -30 3 -25 0 -31 -5 -39 -37z m59
-102 c11 -45 20 -84 20 -87 0 -2 -18 -4 -40 -4 -22 0 -40 3 -40 8 0 17 34 171
37 168 2 -2 13 -40 23 -85z"/>
<path d="M1670 4920 c0 -193 1 -200 20 -200 19 0 20 8 22 166 l3 166 65 -166
c62 -159 66 -166 92 -166 l28 0 0 200 0 200 -22 0 -23 0 3 -162 c2 -89 1 -160
-1 -158 -3 3 -32 76 -67 163 -60 153 -62 157 -91 157 l-29 0 0 -200z"/>
<path d="M2240 4920 l0 -200 25 0 25 0 0 200 0 200 -25 0 -25 0 0 -200z"/>
<path d="M2426 5103 c-13 -42 -86 -357 -86 -369 0 -8 9 -14 19 -14 16 0 22 12
33 63 l13 62 52 3 52 3 10 -38 c5 -21 13 -50 17 -65 5 -21 12 -28 31 -28 19 0
23 4 18 19 -6 20 -95 373 -95 378 0 2 -13 3 -29 3 -20 0 -31 -6 -35 -17z m54
-122 c11 -45 20 -84 20 -87 0 -2 -18 -4 -40 -4 -22 0 -40 3 -40 8 0 17 34 171
37 168 2 -2 13 -40 23 -85z"/>
<path d="M2630 4920 l0 -201 92 3 c79 3 93 6 96 21 3 15 -5 17 -67 17 l-71 0
0 180 0 180 -25 0 -25 0 0 -200z"/>
<path d="M8020 4890 l0 -40 225 0 225 0 0 40 0 40 -225 0 -225 0 0 -40z"/>
<path d="M3240 4893 c-8 -3 -25 -15 -37 -26 -13 -11 -23 -16 -23 -10 0 17 -64
35 -94 27 -48 -12 -66 -48 -66 -130 l0 -74 185 0 185 0 0 68 c0 115 -64 176
-150 145z m84 -85 c9 -12 16 -33 16 -45 0 -21 -4 -23 -60 -23 l-60 0 0 33 c0
42 15 57 56 57 23 0 38 -7 48 -22z m-163 -15 c15 -41 5 -53 -46 -53 -43 0 -45
1 -45 28 0 36 16 52 52 52 22 0 31 -6 39 -27z"/>
<path d="M9190 4849 c-87 -35 -130 -142 -130 -328 0 -170 33 -274 100 -319 30
-20 45 -23 100 -20 79 4 119 28 148 91 59 126 55 411 -9 513 -38 62 -137 92
-209 63z m109 -63 c53 -28 66 -80 66 -271 0 -157 -2 -173 -23 -212 -24 -47
-47 -63 -87 -63 -14 0 -35 5 -46 10 -55 30 -89 207 -70 363 11 95 27 135 67
166 31 25 55 26 93 7z"/>
<path d="M10570 4815 l0 -45 100 0 101 0 -3 -57 -3 -58 -97 -3 -98 -3 0 -45 0
-44 248 2 247 3 3 42 3 42 -113 3 -113 3 -3 57 -3 57 113 3 113 3 3 43 3 42
-250 0 -251 0 0 -45z"/>
<path d="M8720 4520 l0 -330 155 0 155 0 0 30 0 30 -115 0 -115 0 0 300 0 300
-40 0 -40 0 0 -330z"/>
<path d="M9595 4573 c-37 -153 -73 -302 -80 -330 l-13 -53 29 0 c16 0 32 0 36
-1 4 0 19 46 33 103 l25 103 85 0 85 0 24 -102 25 -103 38 0 c21 0 38 2 38 5
0 3 -37 151 -81 330 l-81 325 -48 0 -48 0 -67 -277z m151 42 c19 -81 34 -149
34 -151 0 -2 -32 -4 -71 -4 -69 0 -71 1 -67 23 22 106 64 285 66 282 2 -1 19
-69 38 -150z"/>
<path d="M9990 4520 l0 -330 35 0 35 0 2 273 3 274 106 -271 106 -271 42 -6
c22 -3 43 -3 46 -1 3 3 5 153 5 334 l0 328 -35 0 -35 0 0 -267 0 -268 -107
268 -106 267 -49 0 -48 0 0 -330z"/>
<path d="M8073 4770 c-41 -25 -55 -72 -51 -170 l3 -75 223 -3 222 -2 0 39 0
40 -92 3 -93 3 -3 31 c-4 40 19 64 62 64 18 0 54 3 80 6 46 7 46 7 46 47 0 39
0 39 -31 33 -17 -3 -57 -6 -88 -6 -44 0 -62 -5 -79 -21 l-23 -20 -30 25 c-38
32 -99 35 -146 6z m120 -72 c9 -7 17 -31 19 -53 l3 -40 -62 -3 -63 -3 0 40 c0
23 7 46 16 55 19 19 64 21 87 4z"/>
<path d="M200 4575 c0 -3 21 -89 46 -190 l46 -185 42 0 41 0 43 168 c23 92 45
177 48 190 6 20 3 22 -29 22 -41 0 -36 13 -74 -165 -15 -71 -29 -123 -31 -115
-1 8 -15 74 -30 145 l-28 130 -37 3 c-20 2 -37 1 -37 -3z"/>
<path d="M516 4463 c-15 -65 -36 -151 -46 -191 l-18 -73 36 3 c33 3 36 6 46
48 11 44 12 45 53 48 44 3 44 3 58 -65 6 -30 10 -33 41 -33 19 0 34 3 34 8 0
4 -19 89 -42 190 l-43 182 -46 0 -46 0 -27 -117z m84 -10 c6 -32 14 -66 16
-75 4 -14 -1 -18 -25 -18 -17 0 -31 5 -31 11 0 17 23 139 26 139 1 0 8 -26 14
-57z"/>
<path d="M760 4390 l0 -190 35 0 35 0 0 80 0 80 28 0 c38 0 52 -17 52 -61 0
-20 3 -51 6 -68 6 -27 11 -31 38 -31 l32 0 -4 73 c-2 40 -10 82 -19 95 -13 21
-13 26 4 44 12 14 18 36 18 70 0 42 -4 53 -28 74 -25 21 -38 24 -113 24 l-84
0 0 -190z m144 124 c18 -18 20 -47 6 -75 -8 -13 -21 -19 -45 -19 l-35 0 0 55
c0 54 0 55 29 55 16 0 37 -7 45 -16z"/>
<path d="M1040 4390 l0 -190 35 0 35 0 0 190 0 190 -35 0 -35 0 0 -190z"/>
<path d="M1231 4543 c-5 -21 -24 -99 -41 -173 -17 -74 -33 -143 -36 -152 -4
-15 1 -18 30 -18 31 0 35 3 41 33 13 66 14 67 56 67 42 0 50 -10 63 -72 6 -24
11 -28 41 -28 32 0 35 2 30 23 -37 158 -77 326 -81 340 -4 13 -16 17 -49 17
-43 0 -45 -1 -54 -37z m79 -165 c0 -13 -8 -18 -29 -18 l-28 0 15 78 16 77 13
-60 c6 -33 12 -68 13 -77z"/>
<path d="M1450 4390 l0 -190 86 0 c84 0 87 1 120 34 43 43 47 99 9 144 -23 27
-23 30 -7 46 11 11 17 33 17 62 0 38 -5 50 -28 70 -25 21 -38 24 -113 24 l-84
0 0 -190z m141 130 c22 -12 26 -59 7 -78 -7 -7 -27 -12 -45 -12 -33 0 -33 0
-33 50 0 47 2 50 26 50 14 0 34 -5 45 -10z m17 -167 c32 -44 1 -103 -55 -103
l-33 0 0 58 c0 32 3 62 7 66 12 12 67 -3 81 -21z"/>
<path d="M1740 4390 l0 -190 100 0 100 0 0 30 0 30 -65 0 -65 0 0 160 0 160
-35 0 -35 0 0 -190z"/>
<path d="M1980 4390 l0 -190 100 0 100 0 0 30 0 30 -67 0 -68 0 3 55 4 55 59
0 c59 0 59 0 59 30 0 30 0 30 -59 30 l-59 0 -4 45 -3 44 65 3 c63 3 65 4 68
31 l3 27 -100 0 -101 0 0 -190z"/>
<path d="M2388 4390 l3 -190 29 0 30 0 0 80 0 80 34 0 c45 0 54 -14 58 -90 l3
-65 33 -3 32 -3 0 66 c0 64 -11 102 -34 118 -7 5 -5 11 6 17 25 15 38 73 27
115 -15 53 -40 65 -139 65 l-85 0 3 -190z m142 120 c24 -24 25 -38 4 -68 -11
-15 -25 -22 -50 -22 l-34 0 0 48 c0 27 3 52 7 55 13 14 54 6 73 -13z"/>
<path d="M2700 4443 c-17 -76 -38 -162 -45 -191 l-13 -53 36 3 c33 3 36 6 46
48 11 44 12 45 54 48 45 3 46 3 57 -60 5 -35 8 -38 40 -38 19 0 35 3 35 8 0 4
-19 89 -42 190 l-42 182 -47 0 -47 0 -32 -137z m95 -7 c3 -27 9 -55 12 -62 4
-10 -4 -14 -26 -14 -35 0 -35 -1 -19 85 13 70 22 68 33 -9z"/>
<path d="M2890 4550 c0 -28 2 -30 40 -30 l40 0 0 -160 0 -160 35 0 35 0 0 159
0 160 43 3 c38 3 42 6 45 31 l3 27 -120 0 -121 0 0 -30z"/>
<path d="M3160 4390 l0 -190 105 0 105 0 0 30 0 30 -70 0 -70 0 0 55 0 55 65
0 65 0 0 30 0 30 -65 0 -65 0 0 45 0 45 65 0 65 0 0 30 0 30 -100 0 -100 0 0
-190z"/>
<path d="M10850 4478 c-19 -13 -49 -48 -67 -78 -57 -97 -61 -101 -101 -98 -30
2 -38 8 -46 30 -8 22 -6 32 9 48 10 11 26 20 37 20 15 0 18 8 18 46 l0 47 -32
-7 c-74 -15 -114 -74 -105 -154 9 -84 60 -125 146 -119 47 3 58 9 84 38 16 19
43 59 61 89 33 59 65 78 110 66 56 -14 52 -95 -5 -115 -26 -9 -29 -15 -29 -50
0 -38 2 -41 26 -41 32 0 89 34 99 58 34 83 27 149 -20 200 -28 31 -39 36 -91
40 -50 3 -65 0 -94 -20z"/>
<path d="M8073 4450 c-42 -25 -53 -48 -53 -108 0 -102 66 -142 235 -142 128 0
183 18 209 69 19 36 20 97 3 131 -16 31 -73 70 -103 70 -21 0 -24 -5 -24 -35
0 -30 4 -37 36 -50 31 -13 35 -18 32 -47 -2 -28 -9 -35 -38 -45 -50 -17 -203
-16 -244 1 -42 17 -55 50 -30 77 9 10 25 19 36 19 14 0 18 8 18 40 0 35 -3 40
-22 40 -13 0 -37 -9 -55 -20z"/>
<path d="M2217 4373 c-4 -3 -7 -17 -7 -30 0 -22 4 -23 65 -23 l65 0 0 30 c0
30 0 30 -58 30 -32 0 -62 -3 -65 -7z"/>
<path d="M10955 4139 c-44 -11 -149 -35 -232 -55 l-153 -36 0 -59 c0 -32 1
-59 3 -59 2 0 110 -25 241 -55 130 -30 241 -55 247 -55 6 0 9 18 7 42 l-3 43
-63 13 -63 14 3 56 3 57 63 13 62 14 0 44 c0 51 3 51 -115 23z m-91 -152 c1
-27 -3 -37 -14 -36 -19 0 -197 37 -190 39 41 10 187 37 194 36 5 -1 9 -19 10
-39z"/>
<path d="M5283 3970 c-41 -21 -65 -50 -117 -142 -30 -54 -55 -71 -90 -62 -49
12 -44 69 8 82 30 8 31 9 31 68 l0 59 -40 -2 c-80 -5 -127 -68 -127 -168 0
-111 54 -168 159 -167 87 1 107 18 200 167 38 62 116 73 129 18 9 -34 -5 -55
-44 -65 -32 -9 -32 -9 -32 -74 l0 -65 38 7 c95 16 137 71 137 179 -1 81 -18
122 -67 156 -46 33 -130 37 -185 9z"/>
<path d="M5800 3971 c-24 -12 -44 -36 -65 -76 -29 -57 -30 -63 -30 -199 0
-124 3 -147 22 -188 29 -64 70 -88 148 -88 43 0 70 6 93 20 34 21 71 87 72
128 0 21 -4 23 -46 20 -43 -3 -47 -5 -58 -38 -7 -23 -20 -38 -37 -44 -36 -12
-55 -3 -76 36 -23 43 -26 264 -4 316 12 30 43 52 72 52 18 0 49 -41 49 -65 0
-23 3 -25 50 -25 45 0 50 2 50 23 0 42 -43 111 -80 129 -46 23 -116 23 -160
-1z"/>
<path d="M8090 3979 c-90 -36 -135 -184 -112 -364 19 -141 66 -195 172 -195
88 0 147 50 164 138 l6 32 -49 0 c-45 0 -49 -2 -56 -27 -9 -37 -33 -63 -59
-63 -56 1 -76 55 -75 202 0 128 12 176 50 197 24 13 29 13 52 -2 14 -9 28 -30
32 -47 6 -29 9 -30 57 -30 l50 0 -7 33 c-18 83 -78 137 -154 136 -25 0 -57 -5
-71 -10z"/>
<path d="M1020 3760 l0 -220 40 0 40 0 0 220 0 220 -40 0 -40 0 0 -220z"/>
<path d="M1190 3760 l0 -220 41 0 42 0 -5 155 c-3 85 -4 154 -2 153 1 -2 29
-70 62 -153 l60 -150 51 -3 51 -3 -2 218 -3 218 -37 3 -37 3 -3 -148 -3 -148
-59 148 -60 147 -48 0 -48 0 0 -220z"/>
<path d="M1533 3958 c4 -13 30 -112 59 -220 l53 -198 52 0 c41 0 53 4 57 18 3
9 28 100 56 202 28 102 53 193 56 203 5 14 -1 17 -40 17 -34 0 -46 -4 -50 -17
-2 -10 -19 -83 -37 -163 -31 -139 -49 -190 -49 -141 0 20 -37 192 -61 284 -9
36 -11 37 -56 37 -42 0 -45 -2 -40 -22z"/>
<path d="M1910 3760 l0 -220 124 0 c104 0 125 3 130 16 16 40 9 44 -79 44
l-85 0 0 65 0 65 75 0 75 0 0 35 0 35 -75 0 -75 0 0 55 0 55 80 0 80 0 0 35 0
35 -125 0 -125 0 0 -220z"/>
<path d="M2285 3971 c-41 -17 -60 -50 -60 -106 0 -66 16 -85 108 -131 74 -38
94 -65 77 -109 -11 -28 -54 -43 -79 -28 -9 5 -22 22 -29 36 -11 22 -20 27 -53
27 -33 0 -39 -3 -39 -21 0 -61 64 -109 145 -109 94 0 145 47 145 134 0 58 -24
87 -115 134 -58 31 -71 42 -73 65 -4 34 13 57 43 57 23 0 55 -28 55 -48 0 -7
16 -12 40 -12 33 0 40 3 40 20 0 32 -20 66 -50 83 -30 18 -119 22 -155 8z"/>
<path d="M2530 3945 l0 -35 50 0 50 0 0 -185 0 -185 45 0 45 0 0 185 0 185 50
0 50 0 0 35 0 35 -145 0 -145 0 0 -35z"/>
<path d="M2870 3760 l0 -220 41 0 42 0 -5 175 c-2 96 -3 173 -1 171 3 -2 63
-329 63 -341 0 -3 18 -5 39 -5 47 0 40 -16 81 189 16 85 33 157 35 160 3 3 3
-75 -1 -172 l-7 -177 46 0 47 0 0 220 0 220 -64 0 -64 0 -17 -77 c-9 -43 -25
-111 -34 -152 l-16 -75 -29 152 -28 152 -64 0 -64 0 0 -220z"/>
<path d="M3330 3760 l0 -220 124 0 c120 0 124 1 130 23 3 12 6 25 6 30 0 4
-38 7 -85 7 l-85 0 0 65 0 65 75 0 75 0 0 35 0 35 -75 0 -75 0 0 55 0 55 80 0
80 0 0 35 0 35 -125 0 -125 0 0 -220z"/>
<path d="M3640 3761 l0 -221 40 0 39 0 3 153 3 152 59 -152 59 -153 48 0 49 0
0 220 0 220 -41 0 -41 0 4 -149 c1 -82 2 -148 1 -147 -2 1 -29 67 -62 147
l-59 144 -51 3 -51 3 0 -220z"/>
<path d="M3990 3945 l0 -35 50 0 50 0 0 -185 0 -185 45 0 45 0 0 185 0 185 50
0 50 0 0 35 0 35 -145 0 -145 0 0 -35z"/>
<path d="M6110 3702 l0 -277 45 3 45 4 0 114 0 114 43 0 c73 0 81 -13 85 -128
l4 -100 49 -4 49 -3 0 80 c-1 99 -12 150 -40 180 -18 19 -19 25 -8 32 31 18
48 58 48 113 0 67 -14 97 -59 127 -30 21 -46 23 -147 23 l-114 0 0 -278z m204
179 c18 -20 23 -62 12 -98 -8 -24 -61 -46 -98 -41 -21 3 -23 9 -26 81 l-3 77
49 0 c35 0 54 -5 66 -19z"/>
<path d="M6510 3705 l0 -275 145 0 c131 0 145 2 145 18 0 9 3 27 6 40 6 22 5
22 -95 22 l-101 0 0 80 0 80 90 0 90 0 0 45 0 45 -90 0 -90 0 0 70 0 70 95 0
95 0 0 40 0 40 -145 0 -145 0 0 -275z"/>
<path d="M6870 3704 l0 -276 113 4 c106 3 116 5 150 30 55 43 78 117 78 248 0
114 -15 176 -54 219 -37 40 -78 51 -187 51 l-100 0 0 -276z m184 185 c38 -17
56 -75 56 -177 0 -149 -27 -202 -100 -202 l-40 0 0 195 0 195 30 0 c16 0 40
-5 54 -11z"/>
<path d="M7292 3704 l3 -277 48 -1 47 -1 0 278 0 277 -50 0 -50 0 2 -276z"/>
<path d="M7450 3940 l0 -39 58 -3 57 -3 3 -235 2 -235 48 1 47 1 3 237 2 236
60 0 60 0 0 40 0 40 -170 0 -170 0 0 -40z"/>
<path d="M8475 3968 c-2 -7 -29 -123 -60 -258 -31 -135 -58 -253 -61 -262 -5
-16 2 -18 45 -18 l50 0 11 58 c7 31 14 63 16 70 3 9 22 12 66 10 l63 -3 14
-67 14 -68 52 0 52 0 -27 118 c-15 64 -44 188 -65 275 l-37 157 -64 0 c-43 0
-66 -4 -69 -12z m110 -295 c5 -21 2 -23 -40 -23 -52 0 -51 -6 -29 115 23 129
24 130 45 25 10 -52 21 -105 24 -117z"/>
<path d="M8790 3703 l0 -278 50 3 50 4 0 114 0 114 38 0 c67 0 76 -15 82 -127
l5 -98 48 -5 47 -6 0 86 c0 98 -12 150 -40 175 -20 18 -20 18 4 40 50 46 54
157 9 207 -36 40 -67 48 -183 48 l-110 0 0 -277z m197 189 c19 -12 34 -63 28
-93 -8 -37 -23 -48 -79 -55 l-46 -7 0 82 0 81 43 0 c23 0 47 -4 54 -8z"/>
<path d="M9190 3705 l0 -275 103 0 c118 0 158 14 194 69 34 51 46 105 46 211
1 110 -13 166 -50 211 -40 47 -79 59 -193 59 l-100 0 0 -275z m189 180 c16 -8
34 -28 40 -46 17 -50 14 -221 -5 -269 -19 -47 -38 -60 -88 -60 l-36 0 0 195 0
195 30 0 c17 0 44 -7 59 -15z"/>
<path d="M4740 3896 l0 -76 -55 0 -54 0 -3 68 c-3 65 -4 67 -30 70 l-28 3 0
-70 0 -71 -50 0 -50 0 0 70 0 70 -30 0 -30 0 0 -110 0 -110 195 0 196 0 -3
113 -3 112 -27 3 -28 3 0 -75z"/>
<path d="M9965 3964 c-108 -15 -171 -48 -201 -105 -9 -19 -17 -70 -21 -135
l-6 -104 296 0 297 0 0 94 c0 52 -5 107 -11 123 -16 44 -58 81 -113 102 -51
19 -184 32 -241 25z m233 -118 c35 -18 62 -66 62 -111 l0 -25 -221 0 -222 0 6
46 c5 52 35 90 81 104 52 16 256 6 294 -14z"/>
<path d="M10633 3764 c-48 -24 -63 -66 -63 -178 l0 -96 250 0 250 0 0 40 0 39
-107 3 -108 3 1 37 c2 53 18 68 74 68 26 0 68 3 94 6 l46 7 0 43 0 43 -72 -5
c-120 -8 -140 -12 -164 -35 -13 -13 -24 -17 -24 -11 0 21 -63 52 -105 52 -22
0 -54 -8 -72 -16z m129 -91 c12 -11 18 -30 18 -60 l0 -43 -70 0 -70 0 0 40 c0
50 27 80 72 80 17 0 40 -7 50 -17z"/>
<path d="M4740 3630 l0 -70 -165 0 -165 0 0 -40 0 -40 195 0 195 0 0 110 0
110 -30 0 -30 0 0 -70z"/>
<path d="M5023 3551 c-53 -33 -62 -63 -64 -207 l-1 -129 283 0 284 0 3 62 3
62 -118 3 -118 3 2 34 c0 18 6 38 12 44 6 6 57 13 113 16 l103 6 3 63 3 62
-83 0 c-101 -1 -154 -12 -182 -39 l-20 -21 -28 27 c-24 23 -39 28 -96 31 -54
2 -73 -1 -99 -17z m155 -123 c7 -7 12 -29 12 -50 l0 -39 -67 3 c-62 3 -68 5
-71 26 -2 13 4 34 12 48 13 19 25 24 59 24 24 0 48 -5 55 -12z"/>
<path d="M10255 3541 c-3 -2 -5 -49 -5 -103 l0 -98 -95 0 -95 0 0 96 0 95 -37
-3 -38 -3 -3 -92 -3 -93 -77 0 -77 0 0 97 0 98 -40 0 -40 0 -3 -142 -3 -143
296 0 295 0 0 144 0 144 -35 4 c-20 2 -38 2 -40 -1z"/>
<path d="M10656 3420 c-92 -28 -125 -153 -60 -229 41 -49 102 -66 234 -66 96
0 123 4 162 22 58 26 80 59 81 120 3 87 -37 140 -120 158 l-33 7 0 -45 c0 -41
2 -45 31 -53 39 -11 54 -33 46 -66 -10 -40 -56 -53 -182 -52 -137 0 -178 16
-173 67 2 25 10 35 35 47 29 13 33 19 33 58 0 45 -3 47 -54 32z"/>
<path d="M4410 3370 l0 -40 195 0 195 0 0 40 0 40 -195 0 -195 0 0 -40z"/>
<path d="M3784 3341 c-42 -26 -65 -80 -71 -170 -11 -160 32 -251 119 -251 52
0 85 21 104 66 19 46 18 54 -11 54 -18 0 -25 -5 -25 -20 0 -30 -37 -62 -67
-58 -14 2 -35 16 -47 31 -18 25 -21 42 -21 135 0 120 14 168 53 183 31 12 69
-10 78 -46 4 -18 13 -25 31 -25 22 0 24 3 18 28 -20 83 -92 115 -161 73z"/>
<path d="M1412 3138 l3 -213 52 -3 c118 -7 173 35 173 131 0 40 -5 54 -28 77
-27 27 -28 29 -11 44 40 34 36 121 -8 156 -21 16 -40 20 -105 20 l-78 0 2
-212z m152 156 c20 -20 21 -88 1 -104 -8 -7 -35 -15 -60 -18 l-45 -5 0 72 0
71 44 0 c27 0 51 -6 60 -16z m8 -181 c24 -21 31 -60 17 -100 -12 -38 -39 -53
-95 -53 l-34 0 0 83 c0 46 2 86 5 89 10 10 90 -4 107 -19z"/>
<path d="M1776 3333 c-11 -39 -96 -396 -96 -405 0 -5 10 -8 23 -6 19 3 24 13
37 71 l14 67 57 0 c56 0 57 -1 63 -32 16 -82 27 -108 45 -108 10 0 20 2 23 5
3 3 -18 99 -46 213 l-52 207 -31 3 c-23 2 -33 -2 -37 -15z m57 -127 c9 -46 17
-89 17 -95 0 -6 -17 -11 -40 -11 -23 0 -40 5 -40 11 0 24 35 179 40 179 3 0
13 -38 23 -84z"/>
<path d="M1992 3138 c3 -205 4 -213 23 -213 19 0 20 8 23 175 l3 175 68 -175
c63 -161 70 -175 95 -178 l26 -3 0 215 c0 209 -1 216 -20 216 -19 0 -20 -7
-21 -167 l0 -168 -67 167 -67 168 -33 0 -32 0 2 -212z"/>
<path d="M2320 3134 l0 -215 23 3 c20 3 22 9 27 90 4 68 9 91 24 105 10 10 20
14 23 8 58 -129 100 -200 121 -203 12 -2 22 1 22 7 0 6 -27 65 -59 130 l-60
118 61 87 c60 87 60 88 32 84 -24 -2 -40 -20 -96 -103 l-68 -99 0 102 0 102
-25 0 -25 0 0 -216z"/>
<path d="M2602 3138 c3 -212 3 -213 26 -216 22 -3 22 -1 22 97 l0 101 43 0
c62 0 77 -20 77 -102 0 -80 6 -98 32 -98 19 0 20 6 16 89 -2 69 -7 93 -22 109
-18 21 -18 22 3 48 15 19 21 41 21 78 -1 84 -31 106 -145 106 l-75 0 2 -212z
m153 158 c14 -10 20 -26 20 -56 0 -53 -30 -80 -86 -80 l-39 0 0 75 0 75 43 0
c24 0 52 -6 62 -14z"/>
<path d="M2890 3181 c0 -186 8 -224 51 -246 44 -23 113 -19 144 8 36 30 44 79
45 260 l0 147 -25 0 -25 0 0 -166 c0 -197 -8 -223 -72 -224 -16 0 -37 9 -48
20 -18 18 -20 33 -20 195 l0 175 -25 0 -25 0 0 -169z"/>
<path d="M3210 3135 c0 -208 1 -215 20 -215 19 0 20 7 20 94 l0 94 60 4 c82 6
111 34 118 112 4 53 3 57 -31 91 -34 34 -37 35 -111 35 l-76 0 0 -215z m150
155 c13 -13 20 -33 20 -60 0 -55 -26 -80 -85 -80 l-45 0 0 80 0 80 45 0 c32 0
51 -6 65 -20z"/>
<path d="M3460 3330 c0 -17 7 -20 45 -20 l45 0 2 -192 c3 -192 3 -193 26 -196
l22 -3 0 195 0 196 50 0 c43 0 50 3 50 20 0 19 -7 20 -120 20 -113 0 -120 -1
-120 -20z"/>
<path d="M3980 3344 c0 -3 25 -63 55 -134 51 -121 55 -134 55 -209 0 -74 2
-81 20 -81 18 0 20 7 20 84 0 80 3 91 55 211 30 69 55 128 55 130 0 3 -11 5
-24 5 -20 0 -28 -13 -62 -100 -21 -55 -41 -100 -44 -100 -3 0 -22 45 -43 100
-34 89 -41 100 -63 100 -13 0 -24 -3 -24 -6z"/>
<path d="M4622 3255 c-30 -25 -34 -26 -50 -12 -27 24 -60 29 -97 17 -55 -18
-65 -41 -65 -147 l0 -93 195 0 195 0 0 95 c0 89 -2 96 -28 126 -41 46 -106 52
-150 14z m112 -71 c9 -8 16 -31 16 -50 l0 -34 -65 0 c-64 0 -65 0 -65 28 0 43
26 72 65 72 18 0 41 -7 49 -16z m-173 -41 l5 -43 -53 0 c-50 0 -53 1 -53 26 0
47 17 65 58 62 35 -3 37 -5 43 -45z"/>
<path d="M8544 3221 c-61 -26 -88 -107 -82 -241 7 -138 33 -180 114 -180 25 0
46 7 61 22 l23 21 0 -22 c0 -16 5 -22 18 -19 15 3 17 18 20 116 l3 112 -61 0
c-53 0 -60 -2 -60 -20 0 -16 7 -20 35 -20 34 0 35 -1 35 -40 0 -22 -7 -57 -15
-76 -13 -33 -17 -35 -52 -32 -55 4 -73 45 -73 166 0 105 16 156 54 173 32 15
72 -9 82 -46 6 -24 37 -35 47 -17 9 16 -15 73 -37 87 -30 20 -85 27 -112 16z"/>
<path d="M7880 3039 l0 -181 29 -29 c25 -25 37 -29 83 -29 101 1 118 37 118
260 l0 160 -25 0 -25 0 0 -168 c0 -190 -6 -212 -63 -212 -18 0 -38 4 -45 8
-23 15 -32 76 -32 224 0 141 -1 148 -20 148 -19 0 -20 -7 -20 -181z"/>
<path d="M8190 3010 c0 -202 1 -210 20 -210 18 0 20 8 22 98 l3 97 45 -2 c58
-3 70 -20 70 -99 0 -75 6 -94 31 -94 17 0 19 8 19 70 0 70 -20 140 -39 140 -6
0 1 11 14 25 20 19 25 34 25 75 0 44 -5 56 -29 81 -27 27 -35 29 -105 29 l-76
0 0 -210z m151 154 c19 -23 17 -90 -3 -110 -10 -11 -34 -18 -60 -18 l-43 -1
-3 73 -3 72 49 0 c34 0 54 -5 63 -16z"/>
<path d="M8770 3010 l0 -210 100 0 c93 0 100 1 100 20 0 18 -7 20 -75 20 l-75
0 0 80 0 79 67 3 c55 2 68 6 71 21 3 15 -5 17 -67 17 l-71 0 0 70 0 70 70 0
c63 0 70 2 70 20 0 19 -7 20 -95 20 l-95 0 0 -210z"/>
<path d="M9022 3013 l3 -208 23 -3 23 -4 -3 170 c-2 94 -1 168 2 166 3 -3 34
-78 70 -167 60 -151 67 -162 93 -165 l27 -3 0 210 c0 203 -1 211 -20 211 -19
0 -20 -8 -22 -167 l-3 -167 -65 165 c-65 162 -66 164 -98 167 l-32 3 2 -208z"/>
<path d="M9300 3200 c0 -17 7 -20 45 -20 l45 0 2 -187 c3 -186 3 -188 26 -191
l22 -3 0 190 0 191 45 0 c38 0 45 3 45 20 0 19 -7 20 -115 20 -108 0 -115 -1
-115 -20z"/>
<path d="M5712 3149 l3 -31 145 0 c165 1 167 5 -32 -68 l-118 -42 0 -44 0 -44
215 0 215 0 0 35 0 35 -152 1 -153 0 150 53 150 53 3 42 3 41 -216 0 -216 0 3
-31z"/>
<path d="M9820 3152 c-53 -26 -80 -74 -80 -142 0 -72 27 -116 90 -147 66 -33
191 -47 301 -34 155 18 214 70 206 184 -5 86 -56 143 -136 154 l-42 6 3 -44
c3 -38 6 -44 34 -51 73 -19 87 -96 24 -133 -31 -18 -52 -20 -180 -20 -121 0
-151 3 -178 18 -69 38 -63 113 11 131 36 9 37 11 37 53 0 40 -2 43 -27 43 -16
0 -44 -8 -63 -18z"/>
<path d="M5087 3126 c-95 -26 -139 -81 -140 -174 -1 -125 71 -184 241 -198
148 -11 284 27 322 89 24 39 34 96 25 149 -10 59 -63 111 -135 132 -66 20
-243 21 -313 2z m321 -142 c13 -9 22 -24 22 -39 0 -42 -31 -50 -190 -50 -158
0 -190 8 -190 49 0 34 25 50 89 58 83 9 242 -1 269 -18z"/>
<path d="M4412 2893 l3 -57 130 -27 c141 -29 141 -28 -10 -54 -133 -23 -125
-18 -125 -81 l0 -54 195 0 195 0 0 36 0 37 -157 -8 c-87 -4 -155 -4 -152 -1 5
5 279 56 302 56 5 0 7 17 5 37 l-3 38 -160 32 -160 31 163 1 162 1 0 35 0 35
-195 0 -196 0 3 -57z"/>
<path d="M5825 2851 c-92 -24 -133 -77 -119 -154 13 -80 86 -117 226 -117 88
1 164 25 190 61 47 64 25 156 -45 192 -43 22 -197 33 -252 18z m207 -81 c39
-11 54 -35 43 -70 -8 -26 -62 -40 -158 -40 -95 0 -147 18 -147 52 0 33 12 48
46 58 41 12 172 12 216 0z"/>
<path d="M2670 2575 l0 -175 35 0 35 0 1 113 1 112 16 -112 15 -113 34 0 c18
0 33 1 34 3 0 1 9 54 19 117 l18 115 1 -117 1 -118 40 0 40 0 0 175 0 176 -57
-3 -58 -3 -15 -95 c-9 -52 -18 -90 -21 -85 -4 6 -9 39 -13 75 -12 112 -11 110
-72 110 l-54 0 0 -175z"/>
<path d="M3055 2728 c-9 -43 -65 -319 -65 -323 0 -3 18 -5 39 -5 40 0 51 11
51 51 0 15 7 19 34 19 31 0 34 -3 40 -35 7 -33 9 -35 49 -35 l43 0 -35 173
-36 172 -57 3 c-53 3 -58 1 -63 -20z m79 -155 c5 -29 3 -33 -17 -33 -23 0 -23
1 -13 68 11 73 9 74 30 -35z"/>
<path d="M3277 2743 c-4 -3 -7 -82 -7 -175 l0 -168 40 0 40 0 0 71 0 70 28 -3
c26 -3 27 -6 32 -68 l5 -65 41 -3 40 -3 -4 68 c-3 41 -10 75 -19 85 -14 15
-13 20 6 44 38 48 22 116 -34 139 -35 15 -156 21 -168 8z m134 -74 c16 -31 -4
-71 -34 -67 -39 5 -37 88 2 88 11 0 25 -10 32 -21z"/>
<path d="M3540 2575 l0 -175 40 0 40 0 0 53 c0 29 6 61 13 71 12 16 16 10 37
-53 l25 -71 42 0 c24 0 43 4 43 8 0 4 -16 47 -35 95 -19 48 -35 94 -35 103 0
9 16 42 35 74 19 32 35 60 35 64 0 3 -19 6 -43 6 l-43 0 -36 -72 -37 -73 0 73
-1 72 -40 0 -40 0 0 -175z"/>
<path d="M3810 2575 l0 -175 94 0 c89 0 94 1 100 23 3 12 6 25 6 30 0 4 -27 7
-60 7 l-60 0 0 45 0 45 55 0 c54 0 55 0 55 30 0 30 -1 30 -55 30 l-55 0 0 35
0 35 55 0 55 0 0 35 0 35 -95 0 -95 0 0 -175z"/>
<path d="M4030 2715 c0 -33 2 -35 35 -35 l35 0 0 -140 0 -140 40 0 40 0 0 140
0 140 35 0 c33 0 35 2 35 35 l0 35 -110 0 -110 0 0 -35z"/>
<path d="M9744 2726 c-3 -8 -4 -27 -2 -43 l3 -28 215 2 215 3 -215 -83 -215
-83 -3 -52 -3 -52 295 0 296 0 0 40 0 40 -216 2 -216 3 216 80 216 79 0 53 0
53 -290 0 c-241 0 -292 -2 -296 -14z"/>
<path d="M4960 2725 c0 -3 -1 -83 -1 -177 l0 -173 50 -3 50 -3 3 56 3 56 230
2 230 2 0 65 0 65 -232 3 -233 2 0 55 0 55 -50 0 c-27 0 -50 -2 -50 -5z"/>
<path d="M7870 2450 l0 -180 68 0 c121 0 162 47 162 186 0 135 -36 174 -160
174 l-70 0 0 -180z m148 103 c7 -10 12 -49 12 -100 0 -76 -2 -86 -25 -108 -13
-14 -33 -25 -45 -25 -19 0 -20 6 -20 131 l0 132 33 -7 c17 -3 38 -14 45 -23z"/>
<path d="M8160 2450 l0 -180 94 0 c89 0 94 1 100 23 3 12 6 25 6 30 0 4 -31 7
-70 7 l-70 0 0 50 0 49 62 3 c59 3 63 4 63 28 0 24 -4 25 -63 28 l-62 3 0 39
0 40 65 0 65 0 0 30 0 30 -95 0 -95 0 0 -180z"/>
<path d="M8400 2450 l0 -180 35 0 35 0 0 80 0 80 60 0 c57 0 60 1 60 25 0 24
-3 25 -60 25 l-60 0 0 45 0 45 60 0 60 0 0 30 0 30 -95 0 -95 0 0 -180z"/>
<path d="M8676 2618 c-2 -7 -21 -80 -40 -163 -20 -82 -39 -158 -42 -167 -4
-15 1 -18 30 -18 33 0 35 2 43 43 8 42 9 42 55 45 l46 3 6 -46 c7 -43 8 -45
42 -45 19 0 34 3 34 8 0 4 -19 85 -42 180 l-42 172 -44 0 c-25 0 -44 -5 -46
-12z m58 -110 c4 -24 9 -53 13 -65 5 -20 1 -23 -27 -23 -29 0 -32 3 -26 23 3
12 9 41 12 65 4 23 10 42 14 42 4 0 10 -19 14 -42z"/>
<path d="M8882 2482 c2 -120 6 -153 20 -175 38 -56 158 -56 196 0 14 22 18 55
21 175 l3 148 -36 0 -36 0 0 -136 c0 -74 -5 -144 -10 -155 -7 -12 -21 -19 -40
-19 -19 0 -33 7 -40 19 -5 11 -10 81 -10 155 l0 136 -36 0 -36 0 4 -148z"/>
<path d="M9180 2450 l0 -180 95 0 95 0 0 30 0 30 -65 0 -65 0 0 150 0 150 -30
0 -30 0 0 -180z"/>
<path d="M9332 2603 c3 -24 8 -28 41 -31 l37 -3 0 -150 0 -149 35 0 35 0 0
150 0 150 40 0 c38 0 40 2 40 30 l0 30 -116 0 -115 0 3 -27z"/>
<path d="M4495 2543 c-62 -16 -101 -76 -92 -144 11 -86 87 -125 229 -117 135
7 185 50 176 150 -6 58 -35 93 -87 108 -36 10 -189 12 -226 3z m231 -88 c15
-9 24 -25 24 -41 0 -36 -50 -54 -149 -54 -91 0 -129 13 -138 48 -12 49 47 74
165 67 44 -2 83 -10 98 -20z"/>
<path d="M5710 2480 l0 -40 215 0 215 0 0 40 0 40 -215 0 -215 0 0 -40z"/>
<path d="M5710 2270 l0 -130 35 0 c35 0 35 0 35 45 l0 45 180 0 180 0 0 40 0
40 -180 0 -180 0 0 45 c0 45 0 45 -35 45 l-35 0 0 -130z"/>
<path d="M5053 2328 c-17 -6 -46 -26 -65 -45 -30 -31 -33 -40 -36 -109 -4 -67
-2 -79 21 -113 16 -24 45 -48 74 -62 44 -22 60 -24 198 -24 133 0 155 2 197
22 53 24 83 65 93 125 19 109 -39 193 -148 213 l-37 7 0 -65 0 -65 35 -6 c59
-11 70 -64 17 -84 -73 -28 -308 -20 -339 11 -26 26 -9 65 32 73 l35 6 0 64 c0
60 -1 64 -22 63 -13 -1 -37 -6 -55 -11z"/>
<path d="M10050 2266 c-140 -34 -267 -66 -282 -69 -26 -7 -28 -11 -28 -62 0
-29 3 -56 8 -58 7 -5 564 -137 576 -137 3 0 6 20 6 44 l0 45 -57 11 c-115 23
-104 13 -101 93 l3 71 75 16 75 16 3 47 c2 34 -1 47 -10 46 -7 0 -128 -29
-268 -63z m40 -136 c0 -27 -2 -50 -4 -50 -6 0 -199 39 -226 46 -19 5 2 12 80
29 155 34 150 35 150 -25z"/>
<path d="M4410 2130 l0 -130 30 0 c29 0 30 2 30 45 l0 45 165 0 165 0 0 40 0
40 -165 0 -165 0 0 45 c0 43 -1 45 -30 45 l-30 0 0 -130z"/>
<path d="M5908 2112 l-198 -46 0 -51 0 -51 208 -47 c114 -26 211 -47 215 -47
5 0 7 17 5 38 -3 36 -4 37 -56 46 l-53 9 3 51 3 51 53 9 52 9 0 38 c0 31 -4
39 -17 38 -10 0 -107 -21 -215 -47z m60 -102 l3 -32 -38 6 c-21 4 -63 12 -93
18 l-55 11 80 18 c44 9 85 16 90 15 6 -2 11 -17 13 -36z"/>
<path d="M8990 2038 l0 -53 115 -65 115 -65 -113 -5 -112 -5 -3 -47 -3 -48
270 0 271 0 0 50 0 50 -92 0 c-82 0 -96 3 -121 23 l-29 23 121 48 121 48 0 49
c0 27 -3 49 -7 49 -5 0 -78 -30 -164 -66 l-156 -66 -102 66 c-56 36 -104 66
-106 66 -3 0 -5 -24 -5 -52z"/>
<path d="M4410 1928 l0 -38 148 0 c161 0 192 -9 192 -55 0 -49 -19 -55 -186
-55 l-154 0 0 -40 0 -40 153 0 c167 0 210 11 234 60 27 55 6 167 -35 186 -9 5
-92 11 -185 14 l-167 5 0 -37z"/>
<path d="M5420 1825 l0 -95 -65 0 -64 0 -3 83 -3 82 -52 3 -53 3 0 -85 0 -86
-60 0 -60 0 0 91 0 90 -51 -3 -50 -3 0 -150 0 -150 285 -3 286 -2 0 154 0 154
-31 6 c-80 16 -79 17 -79 -89z"/>
<path d="M10250 1800 l0 -100 -252 -2 -253 -3 0 -45 0 -45 293 -3 292 -3 0
144 0 145 -31 6 c-17 3 -35 6 -40 6 -5 0 -9 -45 -9 -100z"/>
<path d="M6077 1833 c-4 -3 -7 -37 -7 -75 l0 -68 -180 0 -180 0 0 -40 0 -40
215 0 215 0 0 109 c0 104 -1 109 -22 115 -29 7 -33 7 -41 -1z"/>
<path d="M9313 1671 c-41 -19 -59 -41 -117 -143 -28 -50 -56 -65 -101 -54 -26
7 -42 43 -31 71 3 9 22 23 41 31 34 14 36 17 33 57 -3 40 -4 42 -33 38 -74 -8
-118 -60 -119 -141 -2 -97 49 -150 145 -150 77 0 107 23 155 114 36 69 66 96
106 96 39 0 51 -7 67 -37 17 -33 -2 -71 -44 -89 -33 -13 -35 -17 -35 -60 l0
-46 33 7 c84 18 127 72 127 160 0 70 -25 115 -80 143 -54 27 -92 28 -147 3z"/>
<path d="M4630 1625 c-91 -23 -177 -45 -192 -48 -26 -7 -28 -11 -28 -57 0 -48
1 -49 38 -59 20 -6 108 -28 195 -49 l157 -40 0 38 c0 35 -3 39 -32 45 -70 14
-69 13 -66 63 3 47 3 47 48 58 46 11 56 26 48 72 -3 17 -15 15 -168 -23z m10
-108 l0 -34 -79 16 c-44 9 -78 18 -76 20 5 5 114 29 138 30 13 1 17 -7 17 -32z"/>
<path d="M5710 1456 l0 -116 215 0 215 0 0 40 0 40 -95 0 -95 0 0 70 0 70 -30
0 -30 0 0 -70 0 -70 -55 0 -54 0 -3 73 -3 72 -32 3 -33 3 0 -115z"/>
<path d="M5420 1460 l0 -90 -232 0 -233 0 1 -62 2 -63 286 -3 286 -2 0 149 c0
166 3 161 -77 161 l-33 0 0 -90z"/>
<path d="M10040 1481 c-152 -37 -281 -70 -288 -75 -15 -9 -16 -102 -1 -112 7
-4 139 -37 295 -74 l284 -66 0 46 0 47 -77 14 -78 15 -3 71 -3 72 81 17 80 17
0 49 c0 26 -3 47 -7 47 -5 -1 -132 -31 -283 -68z m50 -131 c0 -34 -4 -50 -12
-49 -7 0 -65 11 -128 23 -83 17 -108 25 -90 30 70 17 197 44 213 45 14 1 17
-8 17 -49z"/>
<path d="M6075 1292 c-3 -3 -5 -38 -5 -79 l0 -73 -60 0 -60 0 0 70 0 70 -35 0
-35 0 0 -70 0 -70 -50 0 -49 0 -3 73 -3 72 -32 3 -33 3 0 -110 0 -111 215 0
215 0 0 109 0 109 -30 4 c-17 3 -32 2 -35 0z"/>
<path d="M8992 1253 l3 -48 268 -3 267 -2 0 50 0 50 -271 0 -270 0 3 -47z"/>
<path d="M5420 1101 l0 -91 -232 0 -233 0 1 -62 2 -63 283 0 284 0 0 150 0
150 -52 3 -53 3 0 -90z"/>
<path d="M9049 1107 c-45 -30 -58 -71 -58 -189 l-1 -98 270 0 270 0 0 45 0 45
-116 0 -117 0 6 47 c7 63 23 73 118 73 104 0 109 3 109 57 l0 46 -46 -7 c-26
-3 -73 -6 -105 -6 -47 0 -63 -5 -87 -25 -26 -22 -31 -23 -43 -9 -40 49 -143
60 -200 21z m158 -94 c7 -9 13 -36 13 -60 l0 -43 -75 0 -75 0 0 43 c0 47 6 58
35 76 26 15 87 6 102 -16z"/>
<path d="M10074 1091 c-18 -11 -39 -29 -47 -42 -15 -20 -17 -21 -23 -5 -17 45
-131 64 -192 32 -52 -27 -66 -66 -66 -191 l-1 -110 293 -3 292 -2 0 112 c0 98
-3 118 -23 152 -12 21 -38 47 -57 57 -47 26 -135 25 -176 0z m163 -94 c11 -10
18 -39 21 -77 l4 -60 -100 0 c-61 0 -103 4 -107 11 -14 21 6 101 32 126 22 22
31 25 79 21 32 -3 62 -11 71 -21z m-294 2 c32 -17 37 -28 37 -86 l0 -53 -80 0
-80 0 0 50 c0 41 5 56 25 75 26 27 63 32 98 14z"/>
<path d="M5842 999 c-100 -19 -132 -64 -132 -183 l0 -76 215 0 215 0 0 70 c0
125 -37 171 -151 189 -72 12 -87 12 -147 0z m149 -79 c62 -12 76 -23 85 -68
l7 -32 -158 0 -157 0 6 32 c8 43 26 59 73 68 56 11 84 11 144 0z"/>
<path d="M5088 795 c-85 -23 -125 -63 -139 -140 -18 -96 29 -178 121 -210 104
-37 302 -28 385 18 57 31 88 95 81 165 -9 95 -60 150 -157 171 -67 15 -233 12
-291 -4z m312 -138 c18 -9 25 -21 25 -42 0 -25 -6 -32 -35 -42 -19 -7 -87 -12
-150 -12 -63 0 -131 5 -150 12 -29 10 -35 17 -35 42 0 46 29 55 185 55 89 0
144 -5 160 -13z"/>
<path d="M5027 349 c-56 -29 -77 -71 -77 -150 0 -105 44 -156 160 -185 76 -19
250 -15 313 8 81 29 126 106 113 196 -12 85 -63 138 -146 149 l-40 6 0 -67 c0
-64 1 -66 25 -66 14 0 34 -9 46 -21 18 -18 19 -23 6 -42 -8 -12 -25 -25 -38
-28 -41 -12 -262 -9 -299 4 -61 21 -48 87 17 87 22 0 23 4 23 65 l0 65 -32 0
c-18 -1 -50 -10 -71 -21z"/>
</g>
</svg>
